<svg height='300px' width='300px'  fill="#000000" xmlns="http://www.w3.org/2000/svg" data-name="Layer 1" viewBox="0 0 128 128" x="0px" y="0px"><title>solid</title><path d="M65.41,3.42A1.93,1.93,0,0,0,66,2,1.93,1.93,0,0,0,65.41.59a2,2,0,0,0-2.83,0A1.93,1.93,0,0,0,62,2a1.93,1.93,0,0,0,.58,1.42,2,2,0,0,0,2.83,0Z"></path><path d="M99.82,1.65a2,2,0,0,0-3.94.7c.19,1,4.64,25.85,13.58,40.66,5.75,9.53,7.83,19.89,5.71,28.43-2.8,11.24-14.53,17.43-24.25,18.42-8.22.83-16-2.22-22.31-8.65-1-1-1.87-2.13-2.78-3.21a2.27,2.27,0,0,0-2.55-.9,2.09,2.09,0,0,0-.68.44l-.15.15,0,0c-6.74,8.8-15.74,13.1-25.33,12.12S15.64,82.68,12.84,71.44c-2.12-8.54,0-18.9,5.71-28.43C27.48,28.2,31.93,3.4,32.12,2.35a2,2,0,1,0-3.94-.7c0,.25-4.51,25.13-13.06,39.29-3.22,5.33-8,15.29-7,26.41-.1.28,6.9,58.89,6.9,58.89A2,2,0,0,0,17,128h.24A2,2,0,0,0,19,125.76L13.7,81.88c5.72,7.13,15,11.14,23,12a30.52,30.52,0,0,0,3.12.16,29.9,29.9,0,0,0,17.57-5.77,8.11,8.11,0,0,0,2.54,1.85L53,123.6A2,2,0,0,0,54.6,126a2,2,0,0,0,.4,0,2,2,0,0,0,2-1.6L63.79,91l.26,0h.16L71,124.4a2,2,0,0,0,2,1.6,2,2,0,0,0,.4,0A2,2,0,0,0,75,123.6L68.11,90.11a7.8,7.8,0,0,0,2.56-1.87A29.89,29.89,0,0,0,88.21,94a30.52,30.52,0,0,0,3.12-.16c8-.82,17.26-4.83,23-12L109,125.76a2,2,0,0,0,1.75,2.22H111a2,2,0,0,0,2-1.76s7-58.61,6.9-58.89c1-11.12-3.78-21.07-7-26.4C104.33,26.78,99.86,1.9,99.82,1.65ZM64.05,87a5.43,5.43,0,0,1-3.28-1,30,30,0,0,0,3.4-3.67q.77.89,1.58,1.71c.4.43,1.1,1.18,1.71,1.83A5.15,5.15,0,0,1,64.05,87Z"></path><path d="M62,41a2,2,0,0,0,4,0V10a2,2,0,0,0-4,0Z"></path><path d="M62,65.66a2,2,0,0,0-2.54,3l3,3.61a2,2,0,0,0,3.08,0l3-3.61a2,2,0,0,0-2.54-3V59a2,2,0,0,0-4,0Z"></path><path d="M84.4,69.39a2,2,0,0,0-2.7-.85L75.8,71.61A2,2,0,0,0,72,70.74l-1.82,4.33a2,2,0,0,0,1.42,2.73l4.59,1a2.05,2.05,0,0,0,.43,0,2,2,0,0,0,1.07-3.68l5.91-3.08A2,2,0,0,0,84.4,69.39Z"></path><path d="M49.09,77.27a2,2,0,0,0,2,1.58,2.06,2.06,0,0,0,.43,0l4.59-1a2,2,0,0,0,1.42-2.73l-1.82-4.33a2,2,0,0,0-3.83.87l-5.91-3.08a2,2,0,0,0-1.84,3.55L50,75.16A2,2,0,0,0,49.09,77.27Z"></path></svg>