<?xml version="1.0" encoding="utf-8"?>
<!-- Generator: Adobe Illustrator 23.0.1, SVG Export Plug-In . SVG Version: 6.00 Build 0)  -->
<svg version="1.1" id="Calque_1" xmlns="http://www.w3.org/2000/svg" xmlns:xlink="http://www.w3.org/1999/xlink" x="0px" y="0px"
	 viewBox="0 0 100 100" style="enable-background:new 0 0 100 100;" xml:space="preserve">
<path d="M82.9,35.8c0-12.3-7.4-19.3-20.4-19.3c-7.3,0-9.8,3-12,5.7c-0.1,0.2-0.3,0.3-0.4,0.5c-0.1-0.2-0.3-0.3-0.4-0.5
	c-2.2-2.7-4.7-5.7-12-5.7c-13,0-20.4,7-20.4,19.3c0,5,1.8,8.9,5.1,11.2c-0.2,2.2-0.7,7.9,0.2,14.3c1.5,10.9,6.3,18.5,13.7,22.1
	c0.2,0.1,0.4,0.1,0.6,0.1c0.3,0,0.7-0.1,1-0.4c0.4-0.4,0.6-1,0.5-1.6c0-0.1-4.2-14.8,1.5-22.3C41.9,56.5,45.3,55,50,55
	s8.1,1.5,10.3,4.4c5.6,7.5,1.5,22.1,1.5,22.3c-0.2,0.6,0,1.2,0.5,1.6c0.3,0.2,0.6,0.4,1,0.4c0.2,0,0.4,0,0.6-0.1
	c7.5-3.5,12.2-11.2,13.8-22.1c0.9-6.5,0.5-12.2,0.2-14.4C80.5,45.1,82.9,41.7,82.9,35.8z M65.5,79c1-5.2,2-15.2-2.8-21.4
	C59.9,53.9,55.7,52,50,52s-9.9,1.9-12.7,5.6c-4.7,6.3-3.7,16.2-2.8,21.4c-10.3-7.6-10-24.6-9.5-30.5c1,0.4,2,0.6,3.1,0.8
	c0.1,0,0.2,0,0.2,0c0.7,0,1.4-0.5,1.5-1.3c0.1-0.8-0.4-1.6-1.2-1.7c-3.9-0.6-8.5-3-8.5-10.6c0-13.5,9.5-16.3,17.4-16.3
	c5.9,0,7.7,2.1,9.7,4.6c1.8,2.1,3.7,4.5,8.3,5.3c0.8,0.1,1.6-0.4,1.7-1.2c0.1-0.8-0.4-1.6-1.2-1.7c-1.7-0.3-2.9-0.8-3.9-1.6
	c0.2-0.2,0.4-0.5,0.6-0.7c2-2.5,3.8-4.6,9.7-4.6c8,0,17.4,2.8,17.4,16.3c0,7.8-4.7,10.1-8.7,10.6c-0.8,0.1-1.4,0.9-1.3,1.7
	c0.1,0.7,0.7,1.3,1.5,1.3c0.1,0,0.1,0,0.2,0c0.9-0.1,2.1-0.4,3.4-0.9C75.4,54.4,75.8,71.4,65.5,79z"/>
</svg>
