<?xml version="1.0" encoding="utf-8"?>
<!-- Generator: Adobe Illustrator 23.0.1, SVG Export Plug-In . SVG Version: 6.00 Build 0)  -->
<svg version="1.1" id="Calque_1" xmlns="http://www.w3.org/2000/svg" xmlns:xlink="http://www.w3.org/1999/xlink" x="0px" y="0px"
	 viewBox="0 0 100 100" style="enable-background:new 0 0 100 100;" xml:space="preserve">
<style type="text/css">
	.st0{stroke:#FFFFFF;stroke-width:2;stroke-miterlimit:10;}
</style>
<path class="st0" d="M50,0C22.4,0,0,22.4,0,50s22.4,50,50,50s50-22.4,50-50S77.6,0,50,0z M50,95C25.2,95,5,74.8,5,50
	c0-12.5,5.2-23.9,13.5-32.1c0.6,5.1,3.3,13.2,13.2,19.8c1.3,0.9,2.4,2.8,3.3,4.8c-2-0.8-4.2-0.9-6.3-0.3c-2,0.5-3.8,1.7-5.3,3.1
	c-1.5-0.8-3.3-1.1-5.1-0.6c-2.8,0.7-5,2.8-5.7,5.5c-0.9,3.2-0.3,6.7,1.5,9.4c1.2,1.8,3.5,4,7.5,5.1c-0.1,0.5-0.1,1-0.2,1.4
	C20.5,78.5,26,86.5,36.8,88.7c1.8,0.4,3.7,0.5,5.7,0.5c13,0,27-8,31.8-16.5c5.5-9.8,4.4-13.9,2.6-17.7c-0.3-0.7-0.6-1.2-0.7-1.8
	c0.3-0.5,1.3-1.6,2.1-2.5c2.6-2.8,6.6-7.1,6.9-13.4c0.4-7.5-3.1-14.8-8.8-18.5c-5.3-3.4-11.9-3.4-18.6,0c-4.2,2.1-7.1,5.5-8.6,10.1
	c-1.7,5.3-1.1,11-0.1,15.3c-2.6,0.4-5.4,1.6-7.8,3.5c0-4-2.6-11.2-6.7-14c-12.2-8.3-11.2-18.6-11.1-19.9C30.8,8.3,40,5,50,5
	c24.8,0,45,20.2,45,45S74.8,95,50,95z M51,50.5c0.4,0.7,0.8,1.3,1.3,1.9c-3.2,1.2-6.6,2.9-8,5c-0.8,1.1-0.5,2.7,0.7,3.5
	c0.4,0.3,0.9,0.4,1.4,0.4c0.8,0,1.6-0.4,2.1-1.1c1-1.5,6.6-3.7,11.2-4.9c0.7-0.2,1.2-0.6,1.5-1.2c0.5-0.6,0.7-1.3,0.5-2.1
	c-0.3-1.3-1.7-2.2-3-1.9c0,0-1.9,0.4-3.2-2c-0.7-1.4-4.1-10.5-1.7-17.8c1-3.3,3-5.6,6.1-7.1c5.1-2.6,9.9-2.7,13.6-0.2
	c4.2,2.7,6.8,8.4,6.6,14.1c-0.2,4.5-3.2,7.7-5.6,10.3c-2,2.2-3.7,4-3.4,6.4c0.2,1.3,0.7,2.4,1.2,3.3c1.1,2.3,2.3,4.8-2.4,13.1
	c-4,7.1-18.8,16.1-32.1,13.5c-8.2-1.6-12.1-7.5-11.5-17.4c0.2-2.8,1.7-6.8,3.5-9.4c0.8-1.1,0.5-2.7-0.6-3.5
	c-1.1-0.8-2.7-0.5-3.5,0.6c-1.1,1.7-2.2,3.7-2.9,5.7c-2.1-0.5-3.7-1.5-4.6-3c-1.2-1.8-1.2-3.9-0.9-5.3c0.3-1.2,1.3-1.8,2.1-2
	c0.1,0,0.3-0.1,0.6-0.1c-0.2,0.4-0.4,0.8-0.6,1.2c-0.6,1.3,0,2.7,1.3,3.3c1.3,0.6,2.7,0,3.3-1.3c0.8-1.8,3.1-4.8,6-5.6
	c1.6-0.4,3.3-0.1,4.9,1.1c0.7,0.5,2.5,1.9,0.2,7c0,0.1-0.1,0.1-0.1,0.2c-0.1,0.2-0.2,0.4-0.3,0.6c-0.1,0.2-0.1,0.3-0.2,0.5
	c-0.9,2.3-1.6,5-1.8,8.2c-0.2,3.7,1.4,5.5,2.7,6.5c1.4,0.9,3.1,1.3,5,1.3c5.5,0,12-3,13.6-3.8c1.2-0.6,1.8-2.1,1.2-3.3
	c-0.6-1.2-2.1-1.8-3.3-1.2c-4.4,2.1-11.6,4.3-13.7,2.9c-0.2-0.1-0.7-0.4-0.5-2c0.5-6.9,3.5-10.8,5.9-12.9c2.5-2.1,5.1-3,6.9-3.1
	C50.6,49.7,50.9,50.2,51,50.5z"/>
</svg>
