<svg xmlns="http://www.w3.org/2000/svg" xmlns:xlink="http://www.w3.org/1999/xlink" version="1.1" x="0px" y="0px" viewBox="0 0 100 125" style="enable-background:new 0 0 100 100;" xml:space="preserve"><g><path d="M62.7724609,40.7612c-0.1757812-7.5356445,4.6210938-8.4780273,4.8632812-8.5205078   c0.8125-0.1289062,1.3701172-0.88867,1.2480469-1.7040997c-0.1230469-0.8188477-0.8935547-1.3847656-1.7060547-1.2607422   c-0.0761719,0.0112305-7.6435547,1.265625-7.4052734,11.5551739c0.2050781,8.7714844-1.9667969,16.2026367-6.453125,22.0859375   c-2.3012695,3.0164185-3.7839355,6.0917969-4.7245483,9.3270264c-0.9404907-3.2351685-2.4229126-6.3104248-4.7236938-9.3270264   c-4.4863281-5.8833008-6.6582031-13.3144531-6.453125-22.0864258c0.2382812-10.2890606-7.3291016-11.5434551-7.4052734-11.5546856   c-0.8134766-0.1171875-1.5654297,0.4350586-1.6953125,1.2460938c-0.1308594,0.8120117,0.4248047,1.5790997,1.234375,1.7182598   c0.2060547,0.0356445,5.0419922,0.9550781,4.8662109,8.5205078c-0.2207031,9.4702148,2.1572266,17.5366211,7.0683594,23.9755859   c4.6542969,6.1030273,5.6083984,12.6235352,5.6083984,20.5366211c0,0.8286133,0.671875,1.5,1.5,1.5s1.5-0.6713867,1.5-1.5   c0-7.9130859,0.9541016-14.4335938,5.609375-20.5366211C60.6152344,58.2973328,62.9931641,50.2309265,62.7724609,40.7612z"/><path d="M90.046875,22.6552448c-5.3076172-5.6611328-14.6855469-9.4135752-23.6494141-1.3579102   c-3.6064453,3.2412109-7.1894531,4.7836914-17.8027344,4.7836914c-10.6123047,0-14.1953125-1.5424805-17.8017578-4.7836914   c-8.9638672-8.0551767-18.3417969-4.3037109-23.6494141,1.3579102c-1.9775391,2.1103516-3.6962891,6.015625-3.0751953,9.9843731   c0.3427734,2.190918,1.5478516,5.2451172,5.3427734,7.3540039c2.1748047,1.2089844,2.5332031,2.2607422,3.0751953,3.8525391   c0.5849609,1.71875,1.3125,3.8579102,4.3007812,6.3432617c2.5664062,2.1337891,4.8125,2.0126953,6.2441406,1.5375977   c1.1582031-0.3850098,2.1071777-1.111145,2.8325195-1.9655762c1.0790405,0.3662109,3.0865479,1.5479736,3.8237305,5.357666   c0.000061,0.0004883,0.0004272,0.0007935,0.0004883,0.0012817c0.824707,4.9159546,2.147644,9.2758179,5.7299805,13.0348511   c6.1835938,6.487793,6.1835938,13.1420898,6.1835938,17.1176758c0,0.8286133,0.671875,1.5,1.5,1.5s1.5-0.6713867,1.5-1.5   c0-4.1347656,0-11.8305664-7.0117188-19.1870117c-3.0522461-3.2021484-4.2023315-6.992981-4.9562988-11.5279541   c-0.0004883-0.0027466-0.0001831-0.0054321-0.0007324-0.0081787c-0.0004272-0.0023804-0.0011597-0.0042725-0.0015869-0.0066528   c-0.2493896-1.5023804-0.4556885-3.0861206-0.6732178-4.7575073c-0.4111328-3.1611328-0.8769531-6.7441406-1.7626953-10.5942383   c-1.6591797-7.2119122-5.8017578-10.7221661-8.984375-12.3969707c-2.0595703-1.0839844-4.4882812-1.0170898-6.4951172,0.1801758   c-1.9941406,1.1904297-3.1992188,3.2817383-3.2226562,5.6879864c0,0.0039062-0.0009766,0.1000977-0.0009766,0.1040039   c0,6.3017578,3.7861328,6.637207,6.2910156,6.859375c0.5927734,0.0527344,1.1523438,0.1020508,1.6669922,0.2084961   c1.2490234,0.2587891,2.9609375,1.7143555,4.0703125,3.4624023c0.8701172,1.3710938,1.0498047,2.3969727,0.9384766,2.8588867   c-0.09021,0.3769531-0.2670898,0.7827759-0.5106812,1.1674805c-0.0106201,0.0178223-0.0220337,0.0349731-0.0319214,0.0532837   c-0.4314575,0.6604614-1.0670776,1.2496338-1.8314209,1.5038452c-1.0341797,0.3432617-2.171875,0.0073242-3.3798828-0.9975586   c-2.3378906-1.9448242-2.84375-3.4306641-3.3789062-5.003418c-0.6259766-1.8374023-1.2724609-3.7373047-4.4580078-5.5078125   c-2.1962891-1.2211914-3.4873047-2.9692383-3.8359375-5.1958008c-0.4619141-2.9531231,0.8691406-5.9414043,2.3007812-7.4687481   c1.5839844-1.6918945,9.9755859-9.6972666,19.4541016-1.1782227c4.6767578,4.203125,9.4902344,5.5522461,19.8076172,5.5522461   c10.3183594,0,15.1318359-1.3491211,19.8085938-5.5522461c9.4775391-8.5205088,17.8691406-0.5131836,19.4541016,1.1782227   c1.4316406,1.5268555,2.7617188,4.5151367,2.2998047,7.4682598c-0.3476562,2.2270508-1.6386719,3.9750977-3.8349609,5.1962891   c-3.1855469,1.7705078-3.8330078,3.6704102-4.4580078,5.5078125c-0.5361328,1.5727539-1.0410156,3.0585938-3.3798828,5.003418   c-1.2080078,1.0048828-2.3457031,1.3408203-3.3789062,0.9975586c-1.2275391-0.4077148-2.1240234-1.6791992-2.3740234-2.7246094   c-0.1113281-0.4619141,0.0683594-1.487793,0.9384766-2.8588867c1.109375-1.7480469,2.8212891-3.2036133,4.0703125-3.4624023   c0.5146484-0.1064453,1.0742188-0.1557617,1.6669922-0.2084961c2.5048828-0.222168,6.2910156-0.5576172,6.2910156-6.859375   l-0.0009766-0.1972656c-0.0234375-2.3129864-1.2285156-4.404295-3.2226562-5.5947247   c-2.0078125-1.1982422-4.4345703-1.2641602-6.4951172-0.1801758c-3.1826172,1.6748047-7.3251953,5.1850586-8.984375,12.3969707   c-0.8857422,3.8500977-1.3515625,7.4331055-1.7626953,10.5942383c-0.875,6.7236328-1.5664062,12.0341797-5.6318359,16.300293   c-7.0117188,7.3564453-7.0117188,15.0522461-7.0117188,19.1870117c0,0.8286133,0.671875,1.5,1.5,1.5s1.5-0.6713867,1.5-1.5   c0-3.9755859,0-10.6298828,6.1835938-17.1176758c3.3894653-3.5566406,4.7539062-7.6531372,5.5899048-12.2474976   c0.0011597-0.0070801,0.0056763-0.0125122,0.0067749-0.0195923c0.5942383-3.8823242,3.1735229-5.1877441,4.4474487-5.6019287   c0.6471558,0.6222534,1.4304199,1.1375122,2.3435669,1.4407959c1.4316406,0.4765625,3.6757812,0.5961914,6.2421875-1.5375977   c2.9882812-2.4853516,3.7167969-4.6245117,4.3017578-6.3432617c0.5419922-1.5917969,0.8994141-2.6435547,3.0751953-3.8525391   c3.7949219-2.1088867,4.9990234-5.1635742,5.3417969-7.3544922C93.7421875,28.6703815,92.0244141,24.7651081,90.046875,22.6552448z    M20.0576172,36.8969421c-0.6835938-0.1416016-1.3574219-0.2011719-2.0097656-0.2592773   c-2.5146484-0.2226562-3.5556641-0.3149414-3.5556641-3.8710938l0.0009766-0.1669922   c0.0126953-1.2587872,0.6708984-2.3989239,1.7607422-3.0488262c1.1005859-0.6577148,2.4316406-0.6962891,3.5605469-0.1010742   c2.6269531,1.3823242,6.0527344,4.3110332,7.4570312,10.4145489c0.652832,2.8365479,1.0608521,5.4649658,1.4058228,7.9967651   c-0.4794922-0.3256226-0.9481812-0.5735474-1.3776855-0.7521362c0.0241089-0.0839844,0.0574951-0.1702881,0.0773315-0.2529297   c0.4667969-1.9462891-0.6289062-4.0727539-1.3242188-5.1669922C24.8554688,39.8027039,22.5673828,37.4159851,20.0576172,36.8969421   z M68.4046631,48.6802063c0.3695068-2.7853394,0.7903442-5.6704712,1.5142822-8.815979   c1.4042969-6.1035156,4.8300781-9.0322247,7.4570312-10.4145489c1.1289062-0.5942383,2.4599609-0.5556641,3.5605469,0.1010742   c1.0898438,0.6499023,1.7480469,1.7900391,1.7607422,3.0336895l0.0009766,0.1821289   c0,3.5561523-1.0410156,3.6484375-3.5556641,3.8710938c-0.6523438,0.0581055-1.3261719,0.1176758-2.0097656,0.2592773   c-2.5097656,0.519043-4.7978516,2.9057617-5.9951172,4.7919922c-0.6953125,1.0942383-1.7910156,3.2207031-1.3242188,5.1669922   c0.067749,0.2819824,0.168457,0.572876,0.2850342,0.8656616C69.5480347,47.9607849,68.9720459,48.2784119,68.4046631,48.6802063z"/></g><text x="0" y="115" fill="#000000" font-size="5px" font-weight="bold" font-family="'Helvetica Neue', Helvetica, Arial-Unicode, Arial, Sans-serif">Created by Artem  Kovyazin</text><text x="0" y="120" fill="#000000" font-size="5px" font-weight="bold" font-family="'Helvetica Neue', Helvetica, Arial-Unicode, Arial, Sans-serif">from the Noun Project</text></svg>