<?xml version="1.0" encoding="utf-8"?>
<!-- Generator: Adobe Illustrator 23.0.1, SVG Export Plug-In . SVG Version: 6.00 Build 0)  -->
<svg version="1.1" id="Calque_1" xmlns="http://www.w3.org/2000/svg" xmlns:xlink="http://www.w3.org/1999/xlink" x="0px" y="0px"
	 viewBox="0 0 100 100" style="enable-background:new 0 0 100 100;" xml:space="preserve">
<g>
	<path d="M64.2,39c-0.2-7.5,4.6-8.5,4.9-8.5c0.8-0.1,1.4-0.9,1.2-1.7c-0.1-0.8-0.9-1.4-1.7-1.3c-0.1,0-7.6,1.3-7.4,11.6
		c0.2,8.8-2,16.2-6.5,22.1c-2.3,3-3.8,6.1-4.7,9.3c-0.9-3.2-2.4-6.3-4.7-9.3c-4.5-5.9-6.7-13.3-6.5-22.1c0.2-10.3-7.3-11.5-7.4-11.6
		c-0.8-0.1-1.6,0.4-1.7,1.2c-0.1,0.8,0.4,1.6,1.2,1.7c0.2,0,5,1,4.9,8.5c-0.2,9.5,2.2,17.5,7.1,24c4.7,6.1,5.6,12.6,5.6,20.5
		c0,0.8,0.7,1.5,1.5,1.5s1.5-0.7,1.5-1.5c0-7.9,1-14.4,5.6-20.5C62,56.6,64.4,48.5,64.2,39z"/>
	<path d="M91.5,20.9c-5.3-5.7-14.7-9.4-23.6-1.4c-3.6,3.2-7.2,4.8-17.8,4.8c-10.6,0-14.2-1.5-17.8-4.8c-9-8.1-18.3-4.3-23.6,1.4
		c-2,2.1-3.7,6-3.1,10c0.3,2.2,1.5,5.2,5.3,7.4c2.2,1.2,2.5,2.3,3.1,3.9c0.6,1.7,1.3,3.9,4.3,6.3c2.6,2.1,4.8,2,6.2,1.5
		c1.2-0.4,2.1-1.1,2.8-2c1.1,0.4,3.1,1.5,3.8,5.4c0,0,0,0,0,0c0.8,4.9,2.1,9.3,5.7,13C43,72.9,43,79.6,43,83.6
		c0,0.8,0.7,1.5,1.5,1.5s1.5-0.7,1.5-1.5c0-4.1,0-11.8-7-19.2c-3.1-3.2-4.2-7-5-11.5c0,0,0,0,0,0c0,0,0,0,0,0
		c-0.2-1.5-0.5-3.1-0.7-4.8c-0.4-3.2-0.9-6.7-1.8-10.6c-1.7-7.2-5.8-10.7-9-12.4c-2.1-1.1-4.5-1-6.5,0.2c-2,1.2-3.2,3.3-3.2,5.7
		c0,0,0,0.1,0,0.1c0,6.3,3.8,6.6,6.3,6.9c0.6,0.1,1.2,0.1,1.7,0.2c1.2,0.3,3,1.7,4.1,3.5c0.9,1.4,1,2.4,0.9,2.9
		c-0.1,0.4-0.3,0.8-0.5,1.2c0,0,0,0,0,0.1c-0.4,0.7-1.1,1.2-1.8,1.5c-1,0.3-2.2,0-3.4-1c-2.3-1.9-2.8-3.4-3.4-5
		c-0.6-1.8-1.3-3.7-4.5-5.5c-2.2-1.2-3.5-3-3.8-5.2c-0.5-3,0.9-5.9,2.3-7.5c1.6-1.7,10-9.7,19.5-1.2c4.7,4.2,9.5,5.6,19.8,5.6
		c10.3,0,15.1-1.3,19.8-5.6c9.5-8.5,17.9-0.5,19.5,1.2c1.4,1.5,2.8,4.5,2.3,7.5c-0.3,2.2-1.6,4-3.8,5.2c-3.2,1.8-3.8,3.7-4.5,5.5
		c-0.5,1.6-1,3.1-3.4,5c-1.2,1-2.3,1.3-3.4,1c-1.2-0.4-2.1-1.7-2.4-2.7C74,44,74.2,43,75.1,41.6c1.1-1.7,2.8-3.2,4.1-3.5
		c0.5-0.1,1.1-0.2,1.7-0.2c2.5-0.2,6.3-0.6,6.3-6.9l0-0.2c0-2.3-1.2-4.4-3.2-5.6c-2-1.2-4.4-1.3-6.5-0.2c-3.2,1.7-7.3,5.2-9,12.4
		c-0.9,3.9-1.4,7.4-1.8,10.6c-0.9,6.7-1.6,12-5.6,16.3c-7,7.4-7,15.1-7,19.2c0,0.8,0.7,1.5,1.5,1.5s1.5-0.7,1.5-1.5
		c0-4,0-10.6,6.2-17.1c3.4-3.6,4.8-7.7,5.6-12.2c0,0,0,0,0,0c0.6-3.9,3.2-5.2,4.4-5.6c0.6,0.6,1.4,1.1,2.3,1.4
		c1.4,0.5,3.7,0.6,6.2-1.5c3-2.5,3.7-4.6,4.3-6.3c0.5-1.6,0.9-2.6,3.1-3.9c3.8-2.1,5-5.2,5.3-7.4C95.1,27,93.4,23,91.5,20.9z
		 M21.5,35.2c-0.7-0.1-1.4-0.2-2-0.3c-2.5-0.2-3.6-0.3-3.6-3.9l0-0.2c0-1.3,0.7-2.4,1.8-3c1.1-0.7,2.4-0.7,3.6-0.1
		c2.6,1.4,6.1,4.3,7.5,10.4c0.7,2.8,1.1,5.5,1.4,8c-0.5-0.3-0.9-0.6-1.4-0.8c0-0.1,0.1-0.2,0.1-0.3c0.5-1.9-0.6-4.1-1.3-5.2
		C26.3,38.1,24,35.7,21.5,35.2z M69.8,47c0.4-2.8,0.8-5.7,1.5-8.8c1.4-6.1,4.8-9,7.5-10.4c1.1-0.6,2.5-0.6,3.6,0.1
		c1.1,0.6,1.7,1.8,1.8,3l0,0.2c0,3.6-1,3.6-3.6,3.9c-0.7,0.1-1.3,0.1-2,0.3c-2.5,0.5-4.8,2.9-6,4.8c-0.7,1.1-1.8,3.2-1.3,5.2
		c0.1,0.3,0.2,0.6,0.3,0.9C71,46.2,70.4,46.6,69.8,47z"/>
</g>
</svg>
