<?xml version="1.0" encoding="utf-8"?>
<!-- Generator: Adobe Illustrator 23.0.1, SVG Export Plug-In . SVG Version: 6.00 Build 0)  -->
<svg version="1.1"
	 id="Calque_1" xmlns:cc="http://creativecommons.org/ns#" xmlns:dc="http://purl.org/dc/elements/1.1/" xmlns:inkscape="http://www.inkscape.org/namespaces/inkscape" xmlns:rdf="http://www.w3.org/1999/02/22-rdf-syntax-ns#" xmlns:sodipodi="http://sodipodi.sourceforge.net/DTD/sodipodi-0.dtd" xmlns:svg="http://www.w3.org/2000/svg"
	 xmlns="http://www.w3.org/2000/svg" xmlns:xlink="http://www.w3.org/1999/xlink" x="0px" y="0px" viewBox="0 0 739.8 751.1"
	 style="enable-background:new 0 0 739.8 751.1;" xml:space="preserve">
<style type="text/css">
	.st0{stroke:#FFFFFF;stroke-width:28;stroke-miterlimit:10;}
</style>
<path class="st0" d="M262.1,0c-17.3,0-31.3,14-31.3,31.3v199.6H31.3C14,230.9,0,244.9,0,262.2v215.5c0,17.3,14,31.3,31.3,31.3h199.6
	v199.6c0,17.3,14,31.3,31.3,31.3h215.5c17.3,0,31.3-14,31.3-31.3V508.9h199.6c17.3,0,31.3-14,31.3-31.3V262.2
	c0-17.3-14-31.3-31.3-31.3H508.9V31.3c0-17.3-14-31.3-31.3-31.3H262.1z M293.4,62.5h153v199.6c0,17.3,14,31.3,31.3,31.3h199.6v153
	H477.6c-17.3,0-31.3,14-31.3,31.3v199.6h-153V477.6c0-17.3-14-31.3-31.3-31.3H62.5v-153h199.6c17.3,0,31.3-14,31.3-31.3L293.4,62.5
	L293.4,62.5z"/>
</svg>
