<?xml version="1.0" encoding="utf-8"?>
<!-- Generator: Adobe Illustrator 23.0.1, SVG Export Plug-In . SVG Version: 6.00 Build 0)  -->
<svg version="1.1" id="Calque_1" xmlns="http://www.w3.org/2000/svg" xmlns:xlink="http://www.w3.org/1999/xlink" x="0px" y="0px"
	 viewBox="0 0 100 100" style="enable-background:new 0 0 100 100;" xml:space="preserve">
<g>
	<path d="M90,49.1c-0.2-0.2-4.1-6.1-10.8-12c-8.9-7.9-18.5-12.1-27.6-12.1c-17.6,0-34.3,18.3-40.7,26.2C9.1,53.6,9.4,57,11.7,59
		c2,1.7,4.9,1.8,7,0.2c0.3-0.2,0.7-0.3,1.1-0.3c0.4,0.1,0.7,0.3,1,0.6c3.4,4.6,13.4,15.4,31.4,15.4c23.2,0,31.8-16.8,32.1-17.5
		c0.4-0.7,0.1-1.6-0.7-2c-0.7-0.4-1.6-0.1-2,0.7c0,0-2,4-6.7,8c-6.2,5.2-13.8,7.9-22.8,7.9c-16.7,0-25.8-9.9-29-14.2
		c-0.7-1-1.8-1.6-2.9-1.8c-1.2-0.2-2.4,0.1-3.3,0.9s-2.3,0.7-3.2-0.1c-1.1-0.9-1.2-2.5-0.3-3.6c6.1-7.5,22.1-25.1,38.4-25.1
		c10.5,0,19.7,6.1,25.5,11.3c6.4,5.7,10.3,11.4,10.3,11.4c0.5,0.7,1.4,0.9,2.1,0.4C90.3,50.7,90.5,49.8,90,49.1z"/>
	<path d="M78.1,50.8c0.5,0.7,1.4,0.9,2.1,0.4c0.7-0.5,0.9-1.4,0.4-2.1C80.1,48.5,68.7,32,52.1,32c0,0,0,0,0,0c0,0,0,0,0,0
		c0,0,0,0,0,0c-16.5,0-29.4,16.4-30,17.1c-0.5,0.7-0.4,1.6,0.3,2.1c0.3,0.2,0.6,0.3,0.9,0.3c0.4,0,0.9-0.2,1.2-0.6
		c0.1-0.1,5.5-7,13.5-11.6c-2.1,2.9-3.3,6.4-3.3,10.1c0,9.6,7.8,17.4,17.4,17.4c9.6,0,17.4-7.8,17.4-17.4c0-3.6-1.1-6.9-2.9-9.6
		C73.7,44.4,78.1,50.7,78.1,50.8z M66.6,49.4c0,7.9-6.5,14.4-14.4,14.4c-7.9,0-14.4-6.5-14.4-14.4c0-7.9,6.5-14.4,14.4-14.4
		c0,0,0,0,0,0C60.1,35,66.6,41.5,66.6,49.4z"/>
	<path d="M43.7,49.4c0,4.7,3.8,8.5,8.5,8.5s8.5-3.8,8.5-8.5s-3.8-8.5-8.5-8.5S43.7,44.7,43.7,49.4z M57.6,49.4c0,3-2.5,5.5-5.5,5.5
		s-5.5-2.5-5.5-5.5s2.5-5.5,5.5-5.5S57.6,46.4,57.6,49.4z"/>
</g>
</svg>
