<svg height='300px' width='300px'  fill="#000000" xmlns="http://www.w3.org/2000/svg" xmlns:xlink="http://www.w3.org/1999/xlink" version="1.1" x="0px" y="0px" viewBox="0 0 100 100" style="enable-background:new 0 0 100 100;" xml:space="preserve"><g><path d="M89.8740234,46.9160156c-0.1650391-0.2451172-4.1181641-6.0693359-10.7910156-11.9711914   c-8.921875-7.8911133-18.4536133-12.0620117-27.5644531-12.0620117c-17.5634766,0-34.3037109,18.3330078-40.6860352,26.215332   c-1.8979492,2.3442383-1.597168,5.7358398,0.6850586,7.7207031c1.9741211,1.7172852,4.9257812,1.8242188,7.0283203,0.2456055   c0.3154297-0.2368164,0.6992188-0.3398438,1.0922852-0.2792969c0.3876953,0.0561523,0.730957,0.2612305,0.9658203,0.5776367   c3.434082,4.6240234,13.3671875,15.3793945,31.3842773,15.3793945c23.2148438,0,31.762207-16.7983398,32.1147461-17.5136719   c0.3657227-0.7416992,0.0615234-1.6386719-0.6801758-2.0058594c-0.7382812-0.3666992-1.6401367-0.0639648-2.0092773,0.6767578   c-0.0195312,0.0400391-2.0375977,4.0297852-6.6640625,7.9536133c-6.1728516,5.2348633-13.8305664,7.8891602-22.7612305,7.8891602   c-16.6552734,0-25.8120117-9.9082031-28.9760742-14.168457c-0.7143555-0.9614258-1.7597656-1.5859375-2.9433594-1.7578125   c-1.1791992-0.1679688-2.3632812,0.1303711-3.3330078,0.8564453s-2.3364258,0.6762695-3.2495117-0.1171875   c-1.0566406-0.9189453-1.1982422-2.4868164-0.3217773-3.5693359c6.1108398-7.5478516,22.0820312-25.1030273,38.3540039-25.1030273   c10.5473633,0,19.7011719,6.1240234,25.5224609,11.2612305c6.4033203,5.6503906,10.3061523,11.3911133,10.3452148,11.4482422   c0.4633789,0.6870117,1.3945312,0.8686523,2.0820312,0.4052734C90.1547852,48.534668,90.3364258,47.6030273,89.8740234,46.9160156z   "></path><path d="M77.9970703,48.659668c0.4677734,0.6831055,1.4013672,0.859375,2.0844727,0.3901367   c0.6835938-0.4672852,0.8588867-1.3999023,0.3916016-2.0834961C79.994812,46.2658691,68.5700073,29.8250122,52.006897,29.812561   c-0.0037842,0-0.0075073-0.0005493-0.0112915-0.0005493c-0.0009155,0-0.0018311,0.0001221-0.0027466,0.0001221   c-0.0015259,0-0.0030518-0.0001221-0.0045776-0.0001221c-16.5170898,0-29.4174805,16.3837891-29.9584961,17.0810547   c-0.5078125,0.6542969-0.3886719,1.5957031,0.2651367,2.1035156c0.2734375,0.2128906,0.597168,0.3154297,0.9189453,0.3154297   c0.4472656,0,0.8896484-0.1992188,1.1855469-0.5795898c0.081604-0.1047363,5.4915161-6.9631958,13.4649048-11.6430664   c-2.0565796,2.8588257-3.2822876,6.3531494-3.2822876,10.1357422c0,9.6020508,7.8115234,17.4135742,17.4135742,17.4135742   c9.6015625,0,17.4130859-7.8115234,17.4130859-17.4135742c0-3.5530396-1.0745239-6.8575439-2.9087524-9.6152344   C73.5212402,42.2376709,77.9281616,48.5592041,77.9970703,48.659668z M66.4086914,47.2250977   c0,7.9477539-6.4658203,14.4135742-14.4130859,14.4135742c-7.9477539,0-14.4135742-6.4658203-14.4135742-14.4135742   c0-7.9462891,6.4642944-14.411377,14.4107056-14.4129639c0.0053101,0,0.0105591,0.0005493,0.0158081,0.0005493   C59.9498901,32.8197632,66.4086914,39.2821655,66.4086914,47.2250977z"></path><path d="M43.5258789,47.2250977c0,4.6704102,3.7993164,8.4702148,8.4697266,8.4702148s8.4697266-3.7998047,8.4697266-8.4702148   s-3.7993164-8.4697266-8.4697266-8.4697266S43.5258789,42.5546875,43.5258789,47.2250977z M57.465332,47.2250977   c0,3.0161133-2.4536133,5.4702148-5.4697266,5.4702148s-5.4697266-2.4541016-5.4697266-5.4702148   s2.4536133-5.4697266,5.4697266-5.4697266S57.465332,44.2089844,57.465332,47.2250977z"></path></g></svg>