<svg xmlns="http://www.w3.org/2000/svg" xmlns:xlink="http://www.w3.org/1999/xlink" version="1.1" x="0px" y="0px" viewBox="0 0 100 125" style="enable-background:new 0 0 100 100;" xml:space="preserve"><g><path d="M48.6416016,18.8330078c-30.7910156,0-31.9658203,26.8496094-31.9736328,27.1210938   c-0.0126953,0.4111328,0.1455078,0.8095703,0.4355469,1.1015625c0.2900391,0.2929688,0.703125,0.4521484,1.0996094,0.4443359   c0.9482422-0.0253906,3.7314453,0.2285156,5.1445312,1.6113281c0.6182251,0.6046753,0.9196777,1.3782349,0.9262085,2.3607788   c0.2161865,5.081665,1.6675415,12.7805176,5.2339478,19.6382446c4.5605469,8.7714844,11.1767578,13.4072266,19.1337891,13.4072266   s14.5732422-4.6357422,19.1328125-13.4072266c3.5551147-6.8370361,5.0082397-14.5075073,5.2315674-19.5895386   c0.000061-0.0061035,0.0018311-0.0117798,0.0018311-0.0178833c0-1.0810547,0.3203125-1.9111328,0.9794922-2.5380859   c1.4121094-1.3417969,4.1201172-1.5224609,5.0458984-1.4667969c0.4189453,0.0185547,0.8300781-0.1318359,1.1298828-0.4238281   c0.3007812-0.2939453,0.4648438-0.7001953,0.4521484-1.1201172C80.6074219,45.6826172,79.4316406,18.8330078,48.6416016,18.8330078   z M48.6416016,81.5175781c-16.328125,0-21.4003906-22.9873047-21.4003906-31.3603516   c0-3.921875,4.2890625-8.1201172,10.6738281-8.1201172c5.059021,0,8.0778809,2.4014282,9.1333618,3.4223633   c-0.3896484,2.7078857-1.5311279,12.3121338,0.1117554,22.5571289c0.1191406,0.7382812,0.7558594,1.2626953,1.4794922,1.2626953   c0.0791016,0,0.1591797-0.0058594,0.2392578-0.0185547c0.8183594-0.1318359,1.375-0.9013672,1.2441406-1.71875   c-1.6184082-10.0866699-0.3745117-19.8023071-0.0675049-21.9030762c0.8569336-0.8837891,3.9275513-3.6018066,9.3126221-3.6018066   c6.3837891,0,10.6728516,4.1982422,10.6728516,8.1201172C70.0410156,58.5302734,64.9697266,81.5175781,48.6416016,81.5175781z    M72.2424316,46.522522c-1.7553101-4.0349731-6.34729-7.4854126-12.8742676-7.4854126   c-5.4492188,0-9.0205078,2.3466797-10.7265625,3.8222656c-1.7060547-1.4755859-5.2773438-3.8222656-10.7265625-3.8222656   c-6.5661621,0-11.1732788,3.491333-12.9050903,7.5568848c-1.6191406-1.3242798-3.755188-1.8205566-5.2199097-1.9963379   c0.6464844-5.2646484,4.6191406-22.7646484,28.8515625-22.7646484c24.1064453,0,28.1660156,17.4199219,28.8427734,22.7285156   C76.0018311,44.7093506,73.8600464,45.177002,72.2424316,46.522522z"/><path d="M54.3310547,26.109375c-0.2802734,0.0537109-2.7734375,0.5791016-3.8046875,2.4316406   c-0.3671875,0.6582031-0.6904297,1.7421875-0.1484375,3.1621094c0.4638672,1.2119141,0.3417969,2.6572266-0.3046875,3.5966797   C49.6386719,35.9296875,49.0166016,36.25,48.2226562,36.25c-0.7929688,0-1.4150391-0.3193359-1.8496094-0.9501953   c-0.6464844-0.9394531-0.7685547-2.3847656-0.3046875-3.5976562c0.5419922-1.4189453,0.21875-2.5029297-0.1484375-3.1611328   c-1.03125-1.8525391-3.5244141-2.3779297-3.8046875-2.4316406c-0.8154297-0.1494141-1.5996094,0.3779297-1.7558594,1.1914062   c-0.1552734,0.8134766,0.3779297,1.5996094,1.1914062,1.7558594c0.4619141,0.0878906,1.4833984,0.4677734,1.7490234,0.9443359   c0.0361328,0.0664062,0.1230469,0.2207031-0.0341797,0.6298828C42.453125,32.7568359,42.7021484,35.2568359,43.9013672,37   c0.9990234,1.4511719,2.5332031,2.25,4.3212891,2.25c1.7890625,0,3.3232422-0.7988281,4.3222656-2.25   c1.1992188-1.7431641,1.4482422-4.2431641,0.6357422-6.3681641c-0.15625-0.4082031-0.0712891-0.5625-0.0351562-0.6279297   c0.2402344-0.4365234,1.1728516-0.8310547,1.7548828-0.9482422c0.8105469-0.1582031,1.3417969-0.9433594,1.1865234-1.7548828   C55.9306641,26.4873047,55.1464844,25.9599609,54.3310547,26.109375z"/></g><text x="0" y="115" fill="#000000" font-size="5px" font-weight="bold" font-family="'Helvetica Neue', Helvetica, Arial-Unicode, Arial, Sans-serif">Created by Artem  Kovyazin</text><text x="0" y="120" fill="#000000" font-size="5px" font-weight="bold" font-family="'Helvetica Neue', Helvetica, Arial-Unicode, Arial, Sans-serif">from the Noun Project</text></svg>