<svg xmlns="http://www.w3.org/2000/svg" xmlns:xlink="http://www.w3.org/1999/xlink" version="1.1" x="0px" y="0px" viewBox="0 0 100 125" style="enable-background:new 0 0 100 100;" xml:space="preserve"><path d="M69.6230469,57.5400391c-1.4306641-0.8217773-2.3125-2.3671875-2.3007812-4.0332031  c0.0478516-6.7954102-1.6494141-28.0390625-9.7939453-36.2412109C55.3125,15.034668,52.7802734,13.9033203,50,13.9033203  s-5.3125,1.1313477-7.5283203,3.3623047c-8.1445312,8.2021484-9.8417969,29.4458008-9.7939453,36.2412109  c0.0117188,1.6660156-0.8701172,3.2114258-2.3007812,4.0332031c-4.7753906,2.7407227-12.7861328,8.8325195-12.7861328,18.8378906  c0,3.1318359,1.1328125,5.6254883,3.3681641,7.4111328c2.9833984,2.3837891,7.5078125,3.0458984,11.6162109,3.0458984  c3.6767578,0,7.0168457-0.5303345,8.6219482-0.8325195C43.5227661,88.8540649,47.0048828,89.3046875,50,89.3046875  c3.7999268,0,6.7597046-1.1726685,8.6776733-3.3261108c1.5496826,0.296936,4.9689941,0.8563843,8.7471313,0.8563843  c4.1083984,0,8.6328125-0.6621094,11.6162109-3.0458984c2.2353516-1.7856445,3.3681641-4.2792969,3.3681641-7.4111328  C82.4091797,66.3725586,74.3984375,60.2807617,69.6230469,57.5400391z M77.1708984,81.4438477  c-4.2073975,3.3635864-12.9849243,2.402771-16.8244629,1.7781372c0.0484009-0.1253662,0.114502-0.236084,0.1584473-0.3650513  c0.0693359-0.2036133,0.1455078-0.4033203,0.2275391-0.5986328c3.484375,0.2338867,10.9921875,0.3706055,13.2236328-2.4658203  c0.7158203-0.9086914,0.8916016-2.0571289,0.4941406-3.2338867c-0.6904297-2.0478516-2.6728516-3.2729492-5.3017578-3.2773438  c-0.0048828,0-0.0097656,0-0.0146484,0c-4.1396484,0-9.5615234,3.0136719-11.46875,8.6074219  C56.6669922,84.8188477,54.0878906,86.3046875,50,86.3046875c-4.4912109,0-6.5683594-1.1967773-7.6650391-4.4165039  c-1.9072266-5.59375-7.3291016-8.6069336-11.46875-8.6069336c-0.0048828,0-0.0097656,0-0.0146484,0  c-2.6289062,0.0043945-4.6113281,1.2294922-5.3017578,3.2773438c-0.3974609,1.1767578-0.2216797,2.3251953,0.4941406,3.2338867  c2.2324219,2.8364258,9.7412109,2.6987305,13.2236328,2.4658203c0.0820312,0.1953125,0.1582031,0.3945312,0.2275391,0.5981445  c0.0441284,0.1295166,0.0968018,0.2432861,0.1436768,0.3677368c-3.8469238,0.6245728-12.6068726,1.5789795-16.8096924-1.7803345  c-1.5058594-1.2045898-2.2382812-2.8618164-2.2382812-5.065918c0-8.4941406,7.0673828-13.8183594,11.2802734-16.2363281  c2.3671875-1.3598633,3.8261719-3.9101562,3.8066406-6.65625c-0.0576172-8.1381836,2.0488281-27.1835938,8.9228516-34.105957  C46.2548828,17.7133789,48.0214844,16.9033203,50,16.9033203s3.7451172,0.8100586,5.3994141,2.4760742  c6.8740234,6.9223633,8.9804688,25.9677734,8.9228516,34.105957c-0.0195312,2.7460938,1.4394531,5.2963867,3.8066406,6.65625  c4.2128906,2.4179688,11.2802734,7.7421875,11.2802734,16.2363281  C79.4091797,78.5820312,78.6767578,80.2392578,77.1708984,81.4438477z M62.6513672,79.3388672  c1.8603516-1.9589844,4.3818359-3.0576172,6.4814453-3.0576172c0.0039062,0,0.0068359,0,0.0097656,0  c0.765625,0.0009766,2.1035156,0.1635742,2.4658203,1.2358398c0.0957031,0.2861328,0.0400391,0.3569336-0.0097656,0.4199219  C70.7792969,78.9794922,66.734375,79.4384766,62.6513672,79.3388672z M37.3496094,79.3398438  c-4.0712891,0.1040039-8.1269531-0.3583984-8.9482422-1.402832c-0.0498047-0.0625-0.1054688-0.1337891-0.0097656-0.4194336  c0.3623047-1.0727539,1.7001953-1.2353516,2.4658203-1.2363281c0.0029297,0,0.0058594,0,0.0097656,0  C32.9677734,76.28125,35.4892578,77.3803711,37.3496094,79.3398438z"/><text x="0" y="115" fill="#000000" font-size="5px" font-weight="bold" font-family="'Helvetica Neue', Helvetica, Arial-Unicode, Arial, Sans-serif">Created by Artem  Kovyazin</text><text x="0" y="120" fill="#000000" font-size="5px" font-weight="bold" font-family="'Helvetica Neue', Helvetica, Arial-Unicode, Arial, Sans-serif">from the Noun Project</text></svg>