<?xml version="1.0" encoding="utf-8"?>
<!-- Generator: Adobe Illustrator 23.0.1, SVG Export Plug-In . SVG Version: 6.00 Build 0)  -->
<svg version="1.1" id="Calque_1" xmlns="http://www.w3.org/2000/svg" xmlns:xlink="http://www.w3.org/1999/xlink" x="0px" y="0px"
	 viewBox="0 0 100 100" style="enable-background:new 0 0 100 100;" xml:space="preserve">
<g>
	<path d="M51.5,14c-16.7,0-21.9,13-21.9,13.1c-0.3,0.8,0.1,1.6,0.9,1.9c0.8,0.3,1.6-0.1,1.9-0.9C32.6,27.7,36.9,17,51.5,17
		c15,0,19.9,14.4,19.9,21.4c0,9.3-8.6,18.1-11.3,20.5c-6.3,5.9-8.2,10.6-9.6,14.9c-1.1,3.4-4.8,9.2-11.6,9.2
		c-6.6,0-10.2-6.8-10.2-11.5c0-0.8-0.7-1.5-1.5-1.5s-1.5,0.7-1.5,1.5c0,7,5.3,14.5,13.2,14.5c7.4,0,12.6-5.7,14.5-11.3
		c1.3-4.1,3-8.2,8.8-13.6c2.9-2.7,12.2-12.3,12.2-22.7C74.4,30.4,68.8,14,51.5,14z"/>
	<path d="M34.7,61.7c0.7-0.4,1-1.3,0.6-2c-0.4-0.7-1.3-1-2-0.6c-1.1,0.6-2.9,2.3-2.9,5.2c0,3.7,2.7,6.2,6.7,6.2
		c2.3,0,5.3-1.2,6.8-6.7c0.4-1.4,1.4-3.5,6-4.7c4.9-1.3,8.9-6.4,8.9-11.4c0-6.6-2.4-11.6-6.7-14c-3.5-2-8-2.1-12.1-0.5
		c1.2-4,5.2-6.3,11-6.3c8,0,9.8,7.5,9.8,10.2c0,0.8,0.7,1.5,1.5,1.5s1.5-0.7,1.5-1.5c0-4.3-3.1-13.2-12.8-13.2
		c-10.6,0-14.4,6.4-14.4,11.8c0,0,0,0,0,0c0,0,0,0,0,0.1c0,6.2,3.8,10.1,3.9,10.2c0.5,0.5,1.3,0.6,1.9,0.2c0.7-0.4,1.4-0.5,1.9-0.2
		c0.6,0.3,1,1,1,1.9c0,0.6-0.2,0.9-0.3,0.9c-0.4,0.4-1.1,0.4-1.3,0.4c-0.8,0-1.5,0.6-1.6,1.4c0,0.8,0.6,1.5,1.4,1.6c0,0,0.1,0,0.2,0
		c0.5,0,2.2-0.1,3.3-1.2c0.6-0.5,1.2-1.5,1.2-3.1c0-2-1-3.7-2.6-4.6c-1.2-0.6-2.5-0.7-3.8-0.3c-0.8-1.1-2.1-3.4-2.4-6.4
		c3.7-1.9,7.9-2.1,11-0.4c3.4,1.9,5.2,5.9,5.2,11.4c0,3.6-3.1,7.5-6.7,8.5c-4.5,1.2-7.2,3.5-8.1,6.8c-0.8,3-2.1,4.5-3.9,4.5
		c-2.3,0-3.7-1.2-3.7-3.2C33.4,62.5,34.5,61.7,34.7,61.7z"/>
</g>
</svg>
