<svg height='300px' width='300px'  fill="#000000" xmlns="http://www.w3.org/2000/svg" xmlns:xlink="http://www.w3.org/1999/xlink" version="1.1" x="0px" y="0px" viewBox="0 0 100 100" style="enable-background:new 0 0 100 100;" xml:space="preserve"><g><path d="M72.8398438,62.5087585c-0.0068359-0.3671875-0.0126953-0.6894531-0.0126953-0.9589844V29.7192097   c0-3.2202148-2.6201172-5.840332-5.8408203-5.840332c-1.0311279,0-1.9990845,0.2709961-2.8408203,0.7418823v-3.8536987   c0-3.2202148-2.6201172-5.840333-5.8408203-5.840333c-1.0307007,0-1.9983521,0.2709351-2.8398438,0.7416382v-2.2260132   c0-3.2202148-2.6201172-5.8403316-5.8408203-5.8403316s-5.8408203,2.6201167-5.8408203,5.8403316v0.6376343   c-0.8414917-0.4707031-1.8091431-0.7416382-2.8398438-0.7416382c-3.2207031,0-5.8408203,2.6201172-5.8408203,5.8408213v27.3388653   c0,1.3012695-0.5361328,2.565918-1.4707031,3.4702148l-0.7807007,0.7554321l-6.9771118-7.1694946   c-2.6044922-2.5498047-6.8232422-2.5283203-9.4003906,0.050293c-1.2705078,1.2709961-1.9658203,2.9604492-1.9580078,4.7573242   c0.0087891,1.7963867,0.71875,3.4785156,2.0009766,4.7373047c0.0332031,0.0322266,0.0673828,0.0634766,0.1035156,0.0927734   l2.6533203,2.1611328c2.4414062,2.4257812,3.2978516,5.4804688,4.2373047,9.5234375   C26.4176636,77.4012146,32.1425781,81.5999451,36.1875,82.9703064v8.1488037c0,0.828125,0.671875,1.5,1.5,1.5s1.5-0.671875,1.5-1.5   v-7.5359497c0.2554932,0.0176392,0.4864502,0.0252075,0.6835938,0.0252075c0.4619141,0,0.7529297-0.0351562,0.8232422-0.0449219   c0.8164062-0.1123047,1.3818359-0.859375,1.2783203-1.6757812c-0.1044922-0.8154297-0.8564453-1.3935547-1.671875-1.2988281   c-0.4003906,0.0498047-9.8388672,0.9619141-13.8681641-16.3720703c-1.0273438-4.4189453-2.0546875-8.0371094-5.1054688-11.0322266   c-0.0332031-0.0322266-0.0673828-0.0634766-0.1035156-0.0927734l-2.6503906-2.1582031   c-0.6777344-0.6884766-1.0527344-1.597168-1.0576172-2.565918c-0.0039062-0.9902344,0.3789062-1.9213867,1.0791016-2.6220703   c1.4199219-1.4204102,3.7451172-1.4335938,5.1552734-0.0537109l10.4208984,10.7094727   c0.578125,0.5957031,1.5283203,0.6064453,2.1210938,0.0292969c0.59375-0.578125,0.6064453-1.5273438,0.0292969-2.1210938   l-1.3778076-1.4158325l0.774292-0.7492065c1.515625-1.4663086,2.3847656-3.5170898,2.3847656-5.6264648V19.1791706   c0-1.5664062,1.2744141-2.8408203,2.8408203-2.8408203c1.5654297,0,2.8398438,1.2744141,2.8398438,2.8408203v8.3193359v21.2104473   c0,0.8286133,0.671875,1.5,1.5,1.5s1.5-0.6713867,1.5-1.5V27.4985065v-8.3193359v-5.7368174   c0-1.5664062,1.2744141-2.840332,2.8408203-2.840332s2.8408203,1.2739258,2.8408203,2.840332v7.324708v0.9946289v26.9472637   c0,0.8286133,0.671875,1.5,1.5,1.5s1.5-0.6713867,1.5-1.5V21.7616901v-0.9946289   c0-1.5664062,1.2744141-2.840332,2.8398438-2.840332c1.5664062,0,2.8408203,1.2739258,2.8408203,2.840332v8.3193359   c0,0.0724487,0.0114136,0.1417847,0.0213623,0.2114868c-0.0100708,0.1397095-0.0213623,0.2791138-0.0213623,0.4213257v21.9741192   c0,0.828125,0.671875,1.5,1.5,1.5s1.5-0.671875,1.5-1.5V29.7192097c0-1.5664062,1.2744141-2.840332,2.8408203-2.840332   s2.8408203,1.2739258,2.8408203,2.840332v31.8305645c0,0.2851562,0.0058594,0.6259766,0.0126953,1.0136719   c0.0644531,3.5537109,0.1992188,10.9472656-3.8349609,15.0556641c-1.9277344,1.9628906-4.6699219,2.9580078-8.1513672,2.9580078   c-0.828125,0-1.5,0.671875-1.5,1.5s0.671875,1.5,1.5,1.5c1.3339844,0,2.5760498-0.1389771,3.7441406-0.3858032v8.2901001   c0,0.828125,0.671875,1.5,1.5,1.5s1.5-0.671875,1.5-1.5v-9.2744751c1.333374-0.62146,2.5236816-1.4433594,3.5478516-2.4862671   C73.0615234,74.7148132,72.9121094,66.4706726,72.8398438,62.5087585z"></path><path d="M42.5361328,62.2323914c-0.6875-0.4609375-1.6191406-0.2832031-2.0830078,0.4052734   c-0.4628906,0.6875-0.28125,1.6191406,0.4052734,2.0830078c0.046875,0.03125,4.703125,3.2578125,4.703125,10.7832031   c0,0.828125,0.671875,1.5,1.5,1.5s1.5-0.671875,1.5-1.5C48.5615234,66.4003601,42.7822266,62.398407,42.5361328,62.2323914z"></path></g></svg>