<?xml version="1.0" encoding="utf-8"?>
<!-- Generator: Adobe Illustrator 23.0.1, SVG Export Plug-In . SVG Version: 6.00 Build 0)  -->
<svg version="1.1" id="Calque_1" xmlns="http://www.w3.org/2000/svg" xmlns:xlink="http://www.w3.org/1999/xlink" x="0px" y="0px"
	 viewBox="0 0 100 100" style="enable-background:new 0 0 100 100;" xml:space="preserve">
<g>
	<path d="M76.2,62.2c0-0.4,0-0.7,0-1V29.4c0-3.2-2.6-5.8-5.8-5.8c-1,0-2,0.3-2.8,0.7v-3.9c0-3.2-2.6-5.8-5.8-5.8c-1,0-2,0.3-2.8,0.7
		v-2.2c0-3.2-2.6-5.8-5.8-5.8s-5.8,2.6-5.8,5.8v0.6c-0.8-0.5-1.8-0.7-2.8-0.7c-3.2,0-5.8,2.6-5.8,5.8v27.3c0,1.3-0.5,2.6-1.5,3.5
		l-0.8,0.8l-7-7.2c-2.6-2.5-6.8-2.5-9.4,0.1c-1.3,1.3-2,3-2,4.8c0,1.8,0.7,3.5,2,4.7c0,0,0.1,0.1,0.1,0.1l2.7,2.2
		c2.4,2.4,3.3,5.5,4.2,9.5c2.9,12.5,8.6,16.7,12.7,18.1v8.1c0,0.8,0.7,1.5,1.5,1.5s1.5-0.7,1.5-1.5v-7.5c0.3,0,0.5,0,0.7,0
		c0.5,0,0.8,0,0.8,0c0.8-0.1,1.4-0.9,1.3-1.7c-0.1-0.8-0.9-1.4-1.7-1.3c-0.4,0-9.8,1-13.9-16.4c-1-4.4-2.1-8-5.1-11
		c0,0-0.1-0.1-0.1-0.1l-2.7-2.2c-0.7-0.7-1.1-1.6-1.1-2.6c0-1,0.4-1.9,1.1-2.6c1.4-1.4,3.7-1.4,5.2-0.1l10.4,10.7
		c0.6,0.6,1.5,0.6,2.1,0c0.6-0.6,0.6-1.5,0-2.1l-1.4-1.4l0.8-0.7c1.5-1.5,2.4-3.5,2.4-5.6V18.9c0-1.6,1.3-2.8,2.8-2.8
		c1.6,0,2.8,1.3,2.8,2.8v8.3v21.2c0,0.8,0.7,1.5,1.5,1.5s1.5-0.7,1.5-1.5V27.2v-8.3v-5.7c0-1.6,1.3-2.8,2.8-2.8s2.8,1.3,2.8,2.8v7.3
		v1v26.9c0,0.8,0.7,1.5,1.5,1.5s1.5-0.7,1.5-1.5V21.5v-1c0-1.6,1.3-2.8,2.8-2.8c1.6,0,2.8,1.3,2.8,2.8v8.3c0,0.1,0,0.1,0,0.2
		c0,0.1,0,0.3,0,0.4v22c0,0.8,0.7,1.5,1.5,1.5s1.5-0.7,1.5-1.5v-22c0-1.6,1.3-2.8,2.8-2.8s2.8,1.3,2.8,2.8v31.8c0,0.3,0,0.6,0,1
		c0.1,3.6,0.2,10.9-3.8,15.1c-1.9,2-4.7,3-8.2,3c-0.8,0-1.5,0.7-1.5,1.5s0.7,1.5,1.5,1.5c1.3,0,2.6-0.1,3.7-0.4v8.3
		c0,0.8,0.7,1.5,1.5,1.5s1.5-0.7,1.5-1.5v-9.3c1.3-0.6,2.5-1.4,3.5-2.5C76.4,74.4,76.2,66.2,76.2,62.2z"/>
	<path d="M45.8,61.9c-0.7-0.5-1.6-0.3-2.1,0.4c-0.5,0.7-0.3,1.6,0.4,2.1c0,0,4.7,3.3,4.7,10.8c0,0.8,0.7,1.5,1.5,1.5
		s1.5-0.7,1.5-1.5C51.9,66.1,46.1,62.1,45.8,61.9z"/>
</g>
</svg>
