<svg xmlns="http://www.w3.org/2000/svg" xmlns:xlink="http://www.w3.org/1999/xlink" version="1.1" x="0px" y="0px" viewBox="0 0 100 125" style="enable-background:new 0 0 100 100;" xml:space="preserve"><g><path d="M90.4702148,21.2651367c0.2714844-3.0473633-1.3789062-5.6035156-2.2280273-6.6977539   c0.1923828-2.1831055-0.3134766-4.0292969-1.5073242-5.4956055c-1.855957-2.2788086-4.8076172-2.831543-5.8452148-2.9580078   c-2.3847656-1.2729492-4.7539062-1.59375-7.0439453-0.9536133c-2.9619141,0.8276367-4.9873047,3.0761719-5.9643555,4.4013672   c-2.4023438-0.5810547-4.4482422-0.347168-6.0942383,0.7011719c-1.4262695,0.9091797-2.2260742,2.2509766-2.6674805,3.3500977   c-1.0551758-0.3100586-2.0683594-0.2988281-3.0234375,0.0351562c-0.8173828,0.2851562-1.456543,0.7651367-1.9443359,1.2724609   c-0.5019531-0.4208984-1.0722656-0.7338867-1.6992188-0.9277344c-1.3330078-0.4130859-2.6655273-0.2255859-3.6567383,0.0605469   c-0.5351562-1.0395508-1.2988281-1.8417969-2.2827148-2.3945312c-1.4975586-0.8422852-3.1328125-0.8823242-4.2641602-0.7612305   c-0.6484375-1.394043-1.6181641-2.4492188-2.8950195-3.1455078c-2.0639648-1.1259766-4.3818359-0.9584961-5.6113281-0.7514648   c-2.0727539-1.7973633-4.2963867-2.6635742-6.5776367-2.5664062c-3.0527344,0.1240234-5.3164062,1.9438477-6.2070312,2.7866211   C18.5,7.6430664,16.7495117,8.7070312,15.7495117,10.3881836c-1.0595703,1.7817383-0.953125,3.800293-0.7080078,5.1054688   c-1.4624023,0.8051758-2.4790039,1.921875-3.0307617,3.3330078c-0.8032227,2.0537109-0.3540039,4.1870117,0.0498047,5.4111328   c-3.0024414,3.394043-2.1748047,7.4667969-0.956543,9.8691406c-2.4228516,3.4492188-1.3012695,7.5131836-0.0600586,9.7402344   c-0.6166992,2.1557617-2.1181641,8.7827148,1.128418,13.3432617c2.0429688,2.8701172,5.4848633,4.3256836,10.2304688,4.3256836   c4.8891602,0,8.4086914-1.4677734,10.4609375-4.3618164c3.0917969-4.3618164,1.6933594-10.5029297,1.121582-12.4833984   c2.1362305-4.4135742,1.1411133-7.4902344-0.2363281-9.1533203c0.5766602-0.9775391,0.8457031-2.0454102,0.9306641-3.0854492   c2.7871094,1.9267578,5.8637695,1.8862305,7.9570312,1.309082c1.3652344,1.5668945,2.9692383,2.4916992,4.7822266,2.7543945   c2.3105469,0.3349609,4.355957-0.5322266,5.5009766-1.1777344c1.9458008,1.2524414,3.7924805,1.644043,5.4946289,1.1591797   c1.6079102-0.4550781,2.6782227-1.6010742,3.3129883-2.5322266c2.0561523,0.6650391,3.7416992,0.3374023,5.0131836-0.3603516   c0.2719727,0.6469727,0.6152344,1.2363281,0.9350586,1.7167969c-0.8520508,0.8774414-1.3925781,1.9174805-1.5839844,3.0664062   c-0.3427734,2.0546875,0.4702148,3.9614258,1.0996094,5.0668945c-1.7993164,2.8515625-1.0429688,5.5761719,0.1279297,7.3779297   c-0.4916992,0.4472656-0.871582,0.984375-1.1259766,1.5976562c-0.4160156,1.0043945-0.4335938,2.0478516-0.3164062,2.9135742   c-0.2714844,0.105957-0.4995117,0.2382812-0.6850586,0.3696289c-0.3256836,0.2314453-0.5874023,0.5087891-0.7978516,0.8017578   c-1.203125-0.7680664-2.4736328-1.1582031-3.8671875-1.1489258c-2.4042969,0.0083008-4.4057617,1.2602539-5.4960938,2.1186523   c-2.5644531-1.1665039-7.1235352-1.5996094-11.2177734,3.0146484c-5.0258789,5.6645508-2.8193359,12.1289062-2.1074219,13.8183594   c-0.2304688,2.8676758-1.0439453,16.2016602,3.2700195,20.9238281c1.0727539,1.1748047,2.4321289,1.7954102,3.9311523,1.7954102   c1.5400391,0,2.9077148-0.605957,4.065918-1.8007812c3.6420898-3.7578125,4.3168945-12.8330078,4.4111328-17.5693359   c3.2539062,1.5371094,6.1420898,0.5151367,7.8740234-0.765625c2.8818359,1.7231445,5.5869141,2.2578125,8.0556641,1.5883789   c2.815918-0.7636719,4.456543-2.8984375,5.1259766-3.9716797c6.4707031-2.0053711,8.0947266-6.6210938,8.0693359-9.3520508   c4.1264648-5.0957031,2.2802734-10.2124023,0.2270508-12.9042969c1.8256836-3.4526367,0.9790039-6.6987305-0.1035156-8.5869141   c2.1547852-3.4179688,1.3178711-6.2680664,0.0795898-7.9482422c2.315918-3.3105469,1.7568359-6.7480469,0.7626953-8.8852539   C89.2792969,25.1972656,90.2856445,23.3330078,90.4702148,21.2651367z M84.6533203,25.2519531   c-0.6640625,0.4882812-0.8095703,1.4208984-0.3261719,2.0883789c0.1098633,0.1513672,2.6494141,3.7543945-0.7036133,7.4306641   c-0.28125,0.3076172-0.4213867,0.71875-0.387207,1.1337891c0.0341797,0.4155273,0.2397461,0.7978516,0.5673828,1.0556641   c0.2705078,0.2128906,2.5664062,2.1865234-0.1816406,5.7705078c-0.4272461,0.5571289-0.4106445,1.3364258,0.0400391,1.875   c0.0258789,0.03125,2.5673828,3.1479492-0.0102539,6.949707c-0.4013672,0.5922852-0.3286133,1.3857422,0.1738281,1.8950195   c0.1948242,0.1977539,4.7163086,4.8979492,0.0263672,10.190918c-0.2802734,0.315918-0.4125977,0.7509766-0.3671875,1.1713867   c0.0224609,0.206543,0.4692383,5.0883789-6.4414062,6.9672852c-0.4169922,0.1132812-0.7685547,0.4091797-0.9584961,0.7973633   c-0.0112305,0.0234375-1.1796875,2.3671875-3.5839844,3.0039062c-1.8583984,0.4941406-4.0566406-0.1171875-6.5385742-1.8100586   c-0.612793-0.4179688-1.4418945-0.3256836-1.9458008,0.2202148c-0.1254883,0.1337891-3.1103516,3.265625-7.1518555-0.2719727   c-0.4492188-0.3930664-1.0883789-0.4819336-1.6289062-0.2270508c-0.5395508,0.2548828-0.8764648,0.8061523-0.8583984,1.402832   c0.121582,3.9248047-0.2807617,14.8515625-3.5595703,18.2333984c-0.5874023,0.605957-1.1948242,0.8881836-1.9111328,0.8881836   c-0.6606445,0-1.2055664-0.2597656-1.7158203-0.8178711c-3.1210938-3.4155273-2.8369141-14.8920898-2.4638672-19.0258789   c0.0244141-0.2739258-0.0288086-0.5546875-0.1499023-0.8012695c-0.1191406-0.2426758-2.8671875-6.0024414,1.4799805-10.9013672   c1.9472656-2.1948242,3.847168-2.7949219,5.3422852-2.7949219c1.6186523,0,2.7631836,0.703125,2.9794922,0.8466797   c0.6020508,0.4145508,1.4213867,0.3291016,1.9306641-0.1962891c0.0195312-0.0195312,1.9467773-1.9799805,4.2416992-1.9799805   c0.0009766,0,0.0019531,0,0.0029297,0c1.2109375,0.0004883,2.324707,0.543457,3.4038086,1.6591797   c0.4082031,0.421875,1.0244141,0.5673828,1.5825195,0.3696289c0.5541992-0.1977539,0.9414062-0.7016602,0.9902344-1.2880859   c0.0175781-0.2114258,0.1743164-0.7885742,0.3984375-0.9472656c0.1118164-0.0795898,0.3793945-0.0219727,0.4873047,0.0058594   c0.5566406,0.1430664,1.1425781-0.0463867,1.5151367-0.4838867c0.3720703-0.4370117,0.4604492-1.0522461,0.2304688-1.578125   c-0.1787109-0.4082031-0.5615234-1.659668-0.1938477-2.5327148c0.1152344-0.2739258,0.3588867-0.671875,1.1367188-0.9658203   c0.4863281-0.184082,0.8393555-0.6103516,0.9384766-1.1210938c0.0991211-0.5102539-0.0771484-1.0395508-0.4594727-1.3920898   c-0.4804688-0.4428711-2.7583008-2.7954102-0.418457-5.6367188c0.4414062-0.5366211,0.453125-1.3105469,0.0336914-1.8642578   c-0.4042969-0.5341797-1.3989258-2.2431641-1.1464844-3.7207031c0.1376953-0.8051758,0.6318359-1.4790039,1.5112305-2.0600586   c0.3632812-0.2402344,0.6040039-0.6259766,0.6601562-1.0581055c0.0561523-0.4316406-0.078125-0.8666992-0.3676758-1.1918945   c-0.8442383-0.9462891-1.894043-2.7626953-1.5839844-3.5698242c0.2827148-0.734375-0.0546875-1.5546875-0.7675781-1.8886719   c-0.7094727-0.3325195-1.5649414-0.0532227-1.9501953,0.6337891c-0.2475586,0.4443359-1.6474609,2.5830078-4.8193359,0.9960938   c-0.3789062-0.1889648-0.8198242-0.2104492-1.2138672-0.0566406c-0.3945312,0.1533203-0.7060547,0.4663086-0.8574219,0.8613281   c-0.0063477,0.0166016-0.7021484,1.6879883-2.0668945,2.074707c-1.2441406,0.3525391-2.7138672-0.4970703-3.7270508-1.2705078   c-0.5380859-0.4106445-1.2905273-0.4052734-1.8295898,0.0063477c-0.0195312,0.0151367-2.0185547,1.5253906-4.2119141,1.1967773   c-1.2851562-0.1923828-2.4477539-1.0073242-3.4550781-2.4213867c-0.4106445-0.5761719-1.1762695-0.7851562-1.8242188-0.503418   c-0.5634766,0.2436523-5.5966797,2.2006836-8.859375-3.8007812c-0.3828125-0.7045898-1.2514648-0.9829102-1.9736328-0.6328125   c-0.7211914,0.3505859-1.0390625,1.2060547-0.7216797,1.9423828c0.0185547,0.043457,1.8071289,4.394043-0.331543,6.5327148   c-0.3266602,0.3266602-0.4848633,0.7851562-0.4282227,1.2436523s0.3208008,0.8657227,0.7167969,1.1030273   c0.0283203,0.0170898,2.800293,1.7578125,0.0961914,6.8442383c-0.1967773,0.3701172-0.2299805,0.8051758-0.0913086,1.2006836   c0.628418,1.7910156,1.7558594,7.1484375-0.5405273,10.387207c-1.456543,2.0551758-4.152832,3.097168-8.0131836,3.097168   c-3.7148438,0-6.3330078-1.0292969-7.7817383-3.0585938c-2.9482422-4.1303711-0.5512695-11.253418-0.5268555-11.324707   c0.1518555-0.4418945,0.0864258-0.9365234-0.1723633-1.3251953c-0.1176758-0.1767578-2.8417969-4.3564453,0.1005859-7.5493164   c0.4741211-0.5146484,0.5297852-1.2885742,0.1337891-1.8657227c-0.1220703-0.1777344-2.9472656-4.3916016,0.6655273-7.6879883   c0.4960938-0.4521484,0.6308594-1.1782227,0.3310547-1.7788086c-0.0107422-0.0214844-1.0546875-2.1992188-0.3481445-4.0068359   c0.3789062-0.9692383,1.2084961-1.6845703,2.5361328-2.1870117c0.7729492-0.2924805,1.1611328-1.1621094,0.8710938-1.9360352   c-0.0083008-0.0224609-0.8383789-2.2871094,0.1230469-3.8852539c0.5766602-0.9599609,1.765625-1.5634766,3.5322266-1.7939453   c0.355957-0.0463867,0.6884766-0.2246094,0.9282227-0.4916992c0.0185547-0.0209961,1.9121094-2.1010742,4.515625-2.1943359   c1.6582031-0.0585938,3.3237305,0.706543,4.9467773,2.2768555c0.3891602,0.3769531,0.949707,0.5126953,1.4697266,0.3598633   c0.0229492-0.0063477,2.3862305-0.6645508,4.1904297,0.3183594c0.9291992,0.5068359,1.5605469,1.3686523,1.9296875,2.6347656   c0.1123047,0.3847656,0.3735352,0.7084961,0.7255859,0.8989258c0.3510742,0.1904297,0.7646484,0.2319336,1.1494141,0.1166992   C41.7421875,14.0307617,43.668457,13.5,45.043457,14.2739258c0.7041016,0.3955078,1.1748047,1.0844727,1.4379883,2.105957   c0.1162109,0.449707,0.434082,0.8203125,0.8608398,1.003418s0.9140625,0.1586914,1.3203125-0.0673828   c0.015625-0.0083008,1.6210938-0.8520508,2.9033203-0.4575195c0.5654297,0.175293,1.0063477,0.5927734,1.3481445,1.2763672   c0.2666016,0.5332031,0.8256836,0.8662109,1.4189453,0.8271484c0.5952148-0.0307617,1.1157227-0.4106445,1.3261719-0.9682617   c0.0043945-0.0117188,0.4990234-1.1899414,1.4267578-1.5136719c0.5922852-0.2070312,1.3461914-0.0429688,2.237793,0.4892578   c0.4335938,0.2573242,0.96875,0.2753906,1.4233398,0.0561523c0.4545898-0.2202148,0.7680664-0.659668,0.8334961-1.1601562   c0.0024414-0.0209961,0.2924805-2.1132812,1.8364258-3.0834961c1.09375-0.6889648,2.652832-0.7060547,4.6342773-0.0532227   c0.6767578,0.2241211,1.4223633-0.0654297,1.7753906-0.6860352c0.3857422-0.6767578,3.9389648-6.5151367,9.8710938-3.1611328   c0.2006836,0.1137695,0.4248047,0.1791992,0.6552734,0.1918945c0.0263672,0.0014648,2.671875,0.1938477,4.0556641,1.8930664   c0.7724609,0.9487305,1.0292969,2.206543,0.784668,3.8442383c-0.0678711,0.4521484,0.0786133,0.9150391,0.390625,1.2495117   c0.0214844,0.0229492,2.1411133,2.3276367,1.8964844,4.956543C87.3374023,22.5527344,86.3862305,23.9775391,84.6533203,25.2519531z   "/><path d="M23.9624023,36.3891602c0.309082-0.4487305,0.3466797-1.0380859,0.1040039-1.5258789   c-0.0151367-0.0302734-1.4848633-3.0551758,0.0024414-6.0297852c0.3701172-0.7412109,0.0698242-1.6420898-0.6708984-2.0126953   c-0.7397461-0.3681641-1.640625-0.0698242-2.0126953,0.6708984c-1.6318359,3.2636719-0.8657227,6.4375-0.3408203,7.8989258   c-2.1791992,3.7197266-1.2587891,7.1918945-0.097168,9.137207c-1.4570312,3.0429688-0.1723633,6.5576172-0.1108398,6.7211914   c0.2250977,0.6010742,0.7949219,0.9711914,1.4018555,0.9711914c0.1733398,0,0.3500977-0.0302734,0.5224609-0.0942383   c0.7749023-0.2871094,1.1704102-1.1494141,0.8862305-1.925293c-0.0107422-0.0292969-1.0649414-2.9746094,0.2983398-4.8710938   c0.4033203-0.5615234,0.3706055-1.3266602-0.0795898-1.8515625C23.8393555,43.4467773,21.2441406,40.3369141,23.9624023,36.3891602   z"/><path d="M70.1347656,18.3222656c-4.7915039-0.496582-7.4350586,1.8945312-8.5727539,3.9467773   c-3.7695312-0.7255859-6.4018555,0.5625-7.7895508,1.5634766c-2.5439453-1.8227539-5.5986328-1.5698242-7.2788086-1.2260742   c-2.2558594-3.5273438-5.9594727-3.949707-8.4272461-3.5400391c-2.2485352-3.3081055-6.2924805-3.1889648-6.4838867-3.1826172   c-0.8237305,0.0332031-1.4614258,0.7246094-1.434082,1.5488281c0.027832,0.8237305,0.6977539,1.46875,1.5444336,1.4492188   c0.1245117,0.0053711,3.0869141-0.0512695,4.2578125,2.5258789c0.3154297,0.6928711,1.1074219,1.0385742,1.8325195,0.8046875   c0.4707031-0.1513672,4.6577148-1.3588867,6.6049805,2.7797852c0.3286133,0.6967773,1.137207,1.0288086,1.8608398,0.7744141   c0.0400391-0.0151367,4.0795898-1.3984375,6.4331055,1.0791016c0.2832031,0.2978516,0.6811523,0.4609375,1.0917969,0.4609375   c0.0073242,0,0.0146484-0.0004883,0.0219727-0.0004883c0.4189453-0.0058594,0.8212891-0.1923828,1.1005859-0.5039062   c0.1005859-0.1118164,2.5107422-2.7177734,7.1147461-1.3364258c0.3837891,0.1147461,0.7983398,0.0649414,1.1508789-0.1274414   c0.3515625-0.1914062,0.6142578-0.5234375,0.7255859-0.9077148c0.1079102-0.371582,1.1865234-3.6137695,5.9375-3.1240234   c0.8164062,0.0854492,1.5605469-0.5131836,1.6469727-1.3374023C71.5576172,19.1455078,70.9589844,18.4082031,70.1347656,18.3222656   z"/><path d="M77.8349609,36.1660156c-0.5932617-0.5776367-1.543457-0.5654297-2.1210938,0.0283203   c-1.25,1.2836914-2.8549805,4.5268555-0.7001953,8.1450195c-0.921875,1.6982422-2.5146484,5.4892578-0.6455078,8.84375   c-0.7958984,1.4980469-2.1948242,4.59375-1.7705078,7.1669922c-2.0605469,0.6245117-5.4458008,2.0219727-7.4130859,4.8222656   c-1.824707-0.5473633-5.3129883-1.2636719-8.2026367,0.0766602c-1.1430664-0.6552734-3.1630859-1.5668945-4.7841797-0.9663086   c-0.7773438,0.2861328-1.175293,1.1484375-0.8886719,1.9257812c0.2861328,0.7783203,1.1503906,1.1757812,1.9257812,0.8886719   c0.4052734-0.1474609,1.8085938,0.4077148,2.8378906,1.1201172c0.5014648,0.3491211,1.1640625,0.3588867,1.6762695,0.0263672   c2.296875-1.4946289,6.2080078-0.4145508,7.519043,0.1269531c0.1889648,0.0791016,0.3847656,0.1166992,0.578125,0.1166992   c0.5561523,0,1.0874023-0.3110352,1.347168-0.8393555c1.8183594-3.7050781,7.6064453-4.7661133,7.6621094-4.7758789   c0.5146484-0.0888672,0.9458008-0.4389648,1.1386719-0.9243164s0.1191406-1.0361328-0.1938477-1.4536133   c-0.9057617-1.2075195,0.4208984-4.644043,1.6025391-6.5864258c0.3212891-0.5283203,0.2861328-1.2016602-0.0898438-1.6928711   c-2.1489258-2.8066406,0.684082-7.0322266,0.7104492-7.0712891c0.3671875-0.5322266,0.3515625-1.2397461-0.0380859-1.7553711   c-2.1157227-2.8022461-0.3320312-4.8745117-0.112793-5.1103516C78.440918,37.6835938,78.425293,36.7407227,77.8349609,36.1660156z"/></g><text x="0" y="115" fill="#000000" font-size="5px" font-weight="bold" font-family="'Helvetica Neue', Helvetica, Arial-Unicode, Arial, Sans-serif">Created by Artem  Kovyazin</text><text x="0" y="120" fill="#000000" font-size="5px" font-weight="bold" font-family="'Helvetica Neue', Helvetica, Arial-Unicode, Arial, Sans-serif">from the Noun Project</text></svg>