<svg height='300px' width='300px'  fill="#000000" xmlns="http://www.w3.org/2000/svg" xmlns:xlink="http://www.w3.org/1999/xlink" version="1.1" x="0px" y="0px" viewBox="0 0 100 100" enable-background="new 0 0 100 100" xml:space="preserve"><path d="M52.5,27.183c-9.856,0-17.875,8.019-17.875,17.875v0.87l-4.822,9.006c-0.249,0.465-0.235,1.026,0.035,1.479  c0.271,0.452,0.76,0.729,1.287,0.729h3.5v5.537c0,3.171,2.58,5.75,5.75,5.75h6.5v2.889c0,0.828,0.672,1.5,1.5,1.5s1.5-0.672,1.5-1.5  v-4.389c0-0.828-0.672-1.5-1.5-1.5h-8c-1.517,0-2.75-1.233-2.75-2.75v-7.037c0-0.828-0.672-1.5-1.5-1.5H33.63l3.817-7.13  c0.117-0.218,0.178-0.461,0.178-0.708v-1.246c0-8.202,6.673-14.875,14.875-14.875s14.875,6.673,14.875,14.875  c0,3.947-1.527,7.65-4.305,10.449c-0.361,0.277-0.588,0.713-0.588,1.191v14.574c0,0.828,0.672,1.5,1.5,1.5s1.5-0.672,1.5-1.5V57.329  c3.16-3.328,4.893-7.661,4.893-12.271C70.375,35.201,62.356,27.183,52.5,27.183z M60.445,37.856c-1.787-2-4.326-3.244-7.148-3.502  c-6.32-0.567-11.197,4.095-11.861,11.362c-0.076,0.825,0.531,1.555,1.356,1.631c0.819,0.063,1.555-0.533,1.63-1.357  c0.513-5.598,3.975-9.08,8.602-8.647c2.063,0.188,3.904,1.081,5.186,2.513c1.279,1.433,1.886,3.306,1.705,5.273  c-0.139,1.531-0.866,2.916-2.048,3.9c-1.181,0.982-2.676,1.446-4.208,1.308c-2.364-0.216-4.111-2.315-3.896-4.679  c0.163-1.766,1.754-3.18,3.436-3.027c1.068,0.098,2.148,0.822,2.045,1.972c-0.084,0.909-0.979,1.229-1.344,1.197  c-0.832-0.054-1.541,0.573-1.595,1.399c-0.054,0.827,0.573,1.541,1.399,1.595c1.982,0.105,4.287-1.332,4.525-3.918  c0.243-2.669-1.848-4.968-4.758-5.233c-3.32-0.299-6.381,2.325-6.695,5.741c-0.367,4.012,2.598,7.574,6.609,7.941  c0.272,0.024,0.543,0.037,0.813,0.037c2.041,0,4-0.706,5.588-2.028c1.798-1.496,2.903-3.604,3.116-5.933  C63.158,42.597,62.287,39.917,60.445,37.856z"></path></svg>