<?xml version="1.0" encoding="utf-8"?>
<!-- Generator: Adobe Illustrator 23.0.1, SVG Export Plug-In . SVG Version: 6.00 Build 0)  -->
<svg version="1.1" id="Calque_1" xmlns="http://www.w3.org/2000/svg" xmlns:xlink="http://www.w3.org/1999/xlink" x="0px" y="0px"
	 viewBox="0 0 300 300" style="enable-background:new 0 0 300 300;" xml:space="preserve">
<style type="text/css">
	.st0{fill:#FFFFFF;}
</style>
<path class="st0" d="M162.5,35.9c-49.3,0-89.4,40.1-89.4,89.4v4.4l-24.1,45c-1.2,2.3-1.2,5.1,0.2,7.4c1.4,2.3,3.8,3.6,6.4,3.6h17.5
	v27.7c0,15.9,12.9,28.8,28.8,28.8h32.5v14.4c0,4.1,3.4,7.5,7.5,7.5c4.1,0,7.5-3.4,7.5-7.5v-21.9c0-4.1-3.4-7.5-7.5-7.5h-40
	c-7.6,0-13.8-6.2-13.8-13.8v-35.2c0-4.1-3.4-7.5-7.5-7.5H68.1l19.1-35.7c0.6-1.1,0.9-2.3,0.9-3.5v-6.2c0-41,33.4-74.4,74.4-74.4
	s74.4,33.4,74.4,74.4c0,19.7-7.6,38.3-21.5,52.3c-1.8,1.4-2.9,3.6-2.9,6v72.9c0,4.1,3.4,7.5,7.5,7.5s7.5-3.4,7.5-7.5v-69.7
	c15.8-16.6,24.5-38.3,24.5-61.4C251.9,76,211.8,35.9,162.5,35.9z M202.2,89.3c-8.9-10-21.6-16.2-35.7-17.5
	c-31.6-2.8-56,20.5-59.3,56.8c-0.4,4.1,2.7,7.8,6.8,8.2c4.1,0.3,7.8-2.7,8.2-6.8c2.6-28,19.9-45.4,43-43.2
	c10.3,0.9,19.5,5.4,25.9,12.6c6.4,7.2,9.4,16.5,8.5,26.4c-0.7,7.7-4.3,14.6-10.2,19.5c-5.9,4.9-13.4,7.2-21,6.5
	c-11.8-1.1-20.6-11.6-19.5-23.4c0.8-8.8,8.8-15.9,17.2-15.1c5.3,0.5,10.7,4.1,10.2,9.9c-0.4,4.5-4.9,6.1-6.7,6c-4.2-0.3-7.7,2.9-8,7
	c-0.3,4.1,2.9,7.7,7,8c9.9,0.5,21.4-6.7,22.6-19.6c1.2-13.3-9.2-24.8-23.8-26.2c-16.6-1.5-31.9,11.6-33.5,28.7
	c-1.8,20.1,13,37.9,33.1,39.7c1.4,0.1,2.7,0.2,4.1,0.2c10.2,0,20-3.5,27.9-10.1c9-7.5,14.5-18,15.6-29.7
	C215.8,113,211.4,99.6,202.2,89.3z"/>
</svg>
