<?xml version="1.0" encoding="utf-8"?>
<!-- Generator: Adobe Illustrator 23.0.1, SVG Export Plug-In . SVG Version: 6.00 Build 0)  -->
<svg version="1.1" id="a7bd4c2a-60cb-483d-8f1a-f087731eba23"
	 xmlns="http://www.w3.org/2000/svg" xmlns:xlink="http://www.w3.org/1999/xlink" x="0px" y="0px" viewBox="0 0 672.5 1182.3"
	 style="enable-background:new 0 0 672.5 1182.3;" xml:space="preserve">
<style type="text/css">
	.st0{opacity:0.3;}
	.st1{fill:#F2F2F2;}
	.st2{opacity:0.1;fill:#6C63FF;enable-background:new    ;}
	.st3{opacity:0.1;}
	.st4{fill:#3F3D56;}
	.st5{opacity:0.1;enable-background:new    ;}
	.st6{fill:#6C63FF;}
	.st7{fill:#192534;}
	.st8{opacity:0.1;fill:#FFFFFF;enable-background:new    ;}
	.st9{fill:#FBBEBE;}
	.st10{fill:none;stroke:#000000;stroke-miterlimit:10;}
	.st11{fill:none;}
	.st12{font-family:'MyriadPro-Regular';}
	.st13{font-size:70px;}
</style>
<title>toy car</title>
<g>
	<g class="st0">
		<path class="st1" d="M441.2,396.7h115.9c4.1,0,7.4,3.3,7.4,7.4v24.7c0,4.1-3.3,7.4-7.4,7.4H441.2c-4.1,0-7.4-3.3-7.4-7.4v-24.7
			C433.8,400.1,437.1,396.7,441.2,396.7z"/>
		<path class="st1" d="M578,436.3h115.9c4.1,0,7.4,3.3,7.4,7.4v24.7c0,4.1-3.3,7.4-7.4,7.4H578c-4.1,0-7.4-3.3-7.4-7.4v-24.7
			C570.6,439.6,573.9,436.3,578,436.3z"/>
		<path class="st1" d="M714.8,475.8h115.9c4.1,0,7.4,3.3,7.4,7.4v24.7c0,4.1-3.3,7.4-7.4,7.4H714.8c-4.1,0-7.4-3.3-7.4-7.4v-24.7
			C707.4,479.1,710.7,475.8,714.8,475.8z"/>
		<path class="st1" d="M441.2,337.4h115.9c4.1,0,7.4,3.3,7.4,7.4v24.7c0,4.1-3.3,7.4-7.4,7.4H441.2c-4.1,0-7.4-3.3-7.4-7.4v-24.7
			C433.8,340.8,437.1,337.4,441.2,337.4z"/>
		<path class="st1" d="M578,377h115.9c4.1,0,7.4,3.3,7.4,7.4v24.7c0,4.1-3.3,7.4-7.4,7.4H578c-4.1,0-7.4-3.3-7.4-7.4v-24.7
			C570.6,380.3,573.9,377,578,377z"/>
		<path class="st1" d="M714.8,416.5h115.9c4.1,0,7.4,3.3,7.4,7.4v24.7c0,4.1-3.3,7.4-7.4,7.4H714.8c-4.1,0-7.4-3.3-7.4-7.4v-24.7
			C707.4,419.8,710.7,416.5,714.8,416.5z"/>
		<path class="st1" d="M441.2,258.4h115.9c4.1,0,7.4,3.3,7.4,7.4v24.7c0,4.1-3.3,7.4-7.4,7.4H441.2c-4.1,0-7.4-3.3-7.4-7.4v-24.7
			C433.8,261.7,437.1,258.4,441.2,258.4z"/>
		<path class="st1" d="M578,297.9h115.9c4.1,0,7.4,3.3,7.4,7.4V330c0,4.1-3.3,7.4-7.4,7.4H578c-4.1,0-7.4-3.3-7.4-7.4v-24.7
			C570.6,301.3,573.9,297.9,578,297.9z"/>
		<path class="st1" d="M714.8,337.4h115.9c4.1,0,7.4,3.3,7.4,7.4v24.7c0,4.1-3.3,7.4-7.4,7.4H714.8c-4.1,0-7.4-3.3-7.4-7.4v-24.7
			C707.4,340.8,710.7,337.4,714.8,337.4z"/>
		<path class="st1" d="M441.2,199.1h115.9c4.1,0,7.4,3.3,7.4,7.4v24.7c0,4.1-3.3,7.4-7.4,7.4H441.2c-4.1,0-7.4-3.3-7.4-7.4v-24.7
			C433.8,202.4,437.1,199.1,441.2,199.1z"/>
		<path class="st1" d="M578,238.6h115.9c4.1,0,7.4,3.3,7.4,7.4v24.7c0,4.1-3.3,7.4-7.4,7.4H578c-4.1,0-7.4-3.3-7.4-7.4v-24.7
			C570.6,242,573.9,238.6,578,238.6z"/>
		<path class="st1" d="M714.8,278.2h115.9c4.1,0,7.4,3.3,7.4,7.4v24.7c0,4.1-3.3,7.4-7.4,7.4H714.8c-4.1,0-7.4-3.3-7.4-7.4v-24.7
			C707.4,281.5,710.7,278.2,714.8,278.2z"/>
		<path class="st2" d="M441.2,396.7h115.9c4.1,0,7.4,3.3,7.4,7.4v24.7c0,4.1-3.3,7.4-7.4,7.4H441.2c-4.1,0-7.4-3.3-7.4-7.4v-24.7
			C433.8,400.1,437.1,396.7,441.2,396.7z"/>
		<path class="st2" d="M578,436.3h115.9c4.1,0,7.4,3.3,7.4,7.4v24.7c0,4.1-3.3,7.4-7.4,7.4H578c-4.1,0-7.4-3.3-7.4-7.4v-24.7
			C570.6,439.6,573.9,436.3,578,436.3z"/>
		<path class="st2" d="M714.8,475.8h115.9c4.1,0,7.4,3.3,7.4,7.4v24.7c0,4.1-3.3,7.4-7.4,7.4H714.8c-4.1,0-7.4-3.3-7.4-7.4v-24.7
			C707.4,479.1,710.7,475.8,714.8,475.8z"/>
		<path class="st2" d="M441.2,337.4h115.9c4.1,0,7.4,3.3,7.4,7.4v24.7c0,4.1-3.3,7.4-7.4,7.4H441.2c-4.1,0-7.4-3.3-7.4-7.4v-24.7
			C433.8,340.8,437.1,337.4,441.2,337.4z"/>
		<path class="st2" d="M578,377h115.9c4.1,0,7.4,3.3,7.4,7.4v24.7c0,4.1-3.3,7.4-7.4,7.4H578c-4.1,0-7.4-3.3-7.4-7.4v-24.7
			C570.6,380.3,573.9,377,578,377z"/>
		<path class="st2" d="M714.8,416.5h115.9c4.1,0,7.4,3.3,7.4,7.4v24.7c0,4.1-3.3,7.4-7.4,7.4H714.8c-4.1,0-7.4-3.3-7.4-7.4v-24.7
			C707.4,419.8,710.7,416.5,714.8,416.5z"/>
		<path class="st2" d="M441.2,258.4h115.9c4.1,0,7.4,3.3,7.4,7.4v24.7c0,4.1-3.3,7.4-7.4,7.4H441.2c-4.1,0-7.4-3.3-7.4-7.4v-24.7
			C433.8,261.7,437.1,258.4,441.2,258.4z"/>
		<path class="st2" d="M578,297.9h115.9c4.1,0,7.4,3.3,7.4,7.4V330c0,4.1-3.3,7.4-7.4,7.4H578c-4.1,0-7.4-3.3-7.4-7.4v-24.7
			C570.6,301.3,573.9,297.9,578,297.9z"/>
		<path class="st2" d="M714.8,337.4h115.9c4.1,0,7.4,3.3,7.4,7.4v24.7c0,4.1-3.3,7.4-7.4,7.4H714.8c-4.1,0-7.4-3.3-7.4-7.4v-24.7
			C707.4,340.8,710.7,337.4,714.8,337.4z"/>
		<path class="st2" d="M441.2,199.1h115.9c4.1,0,7.4,3.3,7.4,7.4v24.7c0,4.1-3.3,7.4-7.4,7.4H441.2c-4.1,0-7.4-3.3-7.4-7.4v-24.7
			C433.8,202.4,437.1,199.1,441.2,199.1z"/>
		<path class="st2" d="M578,238.6h115.9c4.1,0,7.4,3.3,7.4,7.4v24.7c0,4.1-3.3,7.4-7.4,7.4H578c-4.1,0-7.4-3.3-7.4-7.4v-24.7
			C570.6,242,573.9,238.6,578,238.6z"/>
		<path class="st2" d="M714.8,278.2h115.9c4.1,0,7.4,3.3,7.4,7.4v24.7c0,4.1-3.3,7.4-7.4,7.4H714.8c-4.1,0-7.4-3.3-7.4-7.4v-24.7
			C707.4,281.5,710.7,278.2,714.8,278.2z"/>
	</g>
	<g class="st0">
		<path class="st1" d="M-70.8,143.7H45.1c4.1,0,7.4,3.3,7.4,7.4v24.7c0,4.1-3.3,7.4-7.4,7.4H-70.8c-4.1,0-7.4-3.3-7.4-7.4v-24.7
			C-78.2,147.1-74.9,143.7-70.8,143.7z"/>
		<path class="st1" d="M66,183.3h115.9c4.1,0,7.4,3.3,7.4,7.4v24.7c0,4.1-3.3,7.4-7.4,7.4H66c-4.1,0-7.4-3.3-7.4-7.4v-24.7
			C58.6,186.6,61.9,183.3,66,183.3z"/>
		<path class="st1" d="M202.8,222.8h115.9c4.1,0,7.4,3.3,7.4,7.4v24.7c0,4.1-3.3,7.4-7.4,7.4H202.8c-4.1,0-7.4-3.3-7.4-7.4v-24.7
			C195.4,226.1,198.7,222.8,202.8,222.8z"/>
		<path class="st1" d="M-70.8,84.4H45.1c4.1,0,7.4,3.3,7.4,7.4v24.7c0,4.1-3.3,7.4-7.4,7.4H-70.8c-4.1,0-7.4-3.3-7.4-7.4V91.9
			C-78.2,87.8-74.9,84.4-70.8,84.4z"/>
		<path class="st1" d="M66,124h115.9c4.1,0,7.4,3.3,7.4,7.4v24.7c0,4.1-3.3,7.4-7.4,7.4H66c-4.1,0-7.4-3.3-7.4-7.4v-24.7
			C58.6,127.3,61.9,124,66,124z"/>
		<path class="st1" d="M202.8,163.5h115.9c4.1,0,7.4,3.3,7.4,7.4v24.7c0,4.1-3.3,7.4-7.4,7.4H202.8c-4.1,0-7.4-3.3-7.4-7.4v-24.7
			C195.4,166.8,198.7,163.5,202.8,163.5z"/>
		<path class="st1" d="M-70.8,5.4H45.1c4.1,0,7.4,3.3,7.4,7.4v24.7c0,4.1-3.3,7.4-7.4,7.4H-70.8c-4.1,0-7.4-3.3-7.4-7.4V12.8
			C-78.2,8.7-74.9,5.4-70.8,5.4z"/>
		<path class="st1" d="M66,44.9h115.9c4.1,0,7.4,3.3,7.4,7.4V77c0,4.1-3.3,7.4-7.4,7.4H66c-4.1,0-7.4-3.3-7.4-7.4V52.4
			C58.6,48.3,61.9,44.9,66,44.9z"/>
		<path class="st1" d="M202.8,84.4h115.9c4.1,0,7.4,3.3,7.4,7.4v24.7c0,4.1-3.3,7.4-7.4,7.4H202.8c-4.1,0-7.4-3.3-7.4-7.4V91.9
			C195.4,87.8,198.7,84.4,202.8,84.4z"/>
		<path class="st1" d="M-70.8-53.9H45.1c4.1,0,7.4,3.3,7.4,7.4v24.7c0,4.1-3.3,7.4-7.4,7.4H-70.8c-4.1,0-7.4-3.3-7.4-7.4v-24.7
			C-78.2-50.6-74.9-53.9-70.8-53.9z"/>
		<path class="st1" d="M66-14.4h115.9c4.1,0,7.4,3.3,7.4,7.4v24.7c0,4.1-3.3,7.4-7.4,7.4H66c-4.1,0-7.4-3.3-7.4-7.4V-6.9
			C58.6-11,61.9-14.4,66-14.4z"/>
		<path class="st1" d="M202.8,25.2h115.9c4.1,0,7.4,3.3,7.4,7.4v24.7c0,4.1-3.3,7.4-7.4,7.4H202.8c-4.1,0-7.4-3.3-7.4-7.4V32.6
			C195.4,28.5,198.7,25.2,202.8,25.2z"/>
		<path class="st2" d="M-70.8,143.7H45.1c4.1,0,7.4,3.3,7.4,7.4v24.7c0,4.1-3.3,7.4-7.4,7.4H-70.8c-4.1,0-7.4-3.3-7.4-7.4v-24.7
			C-78.2,147.1-74.9,143.7-70.8,143.7z"/>
		<path class="st2" d="M66,183.3h115.9c4.1,0,7.4,3.3,7.4,7.4v24.7c0,4.1-3.3,7.4-7.4,7.4H66c-4.1,0-7.4-3.3-7.4-7.4v-24.7
			C58.6,186.6,61.9,183.3,66,183.3z"/>
		<path class="st2" d="M202.8,222.8h115.9c4.1,0,7.4,3.3,7.4,7.4v24.7c0,4.1-3.3,7.4-7.4,7.4H202.8c-4.1,0-7.4-3.3-7.4-7.4v-24.7
			C195.4,226.1,198.7,222.8,202.8,222.8z"/>
		<path class="st2" d="M-70.8,84.4H45.1c4.1,0,7.4,3.3,7.4,7.4v24.7c0,4.1-3.3,7.4-7.4,7.4H-70.8c-4.1,0-7.4-3.3-7.4-7.4V91.9
			C-78.2,87.8-74.9,84.4-70.8,84.4z"/>
		<path class="st2" d="M66,124h115.9c4.1,0,7.4,3.3,7.4,7.4v24.7c0,4.1-3.3,7.4-7.4,7.4H66c-4.1,0-7.4-3.3-7.4-7.4v-24.7
			C58.6,127.3,61.9,124,66,124z"/>
		<path class="st2" d="M202.8,163.5h115.9c4.1,0,7.4,3.3,7.4,7.4v24.7c0,4.1-3.3,7.4-7.4,7.4H202.8c-4.1,0-7.4-3.3-7.4-7.4v-24.7
			C195.4,166.8,198.7,163.5,202.8,163.5z"/>
		<path class="st2" d="M-70.8,5.4H45.1c4.1,0,7.4,3.3,7.4,7.4v24.7c0,4.1-3.3,7.4-7.4,7.4H-70.8c-4.1,0-7.4-3.3-7.4-7.4V12.8
			C-78.2,8.7-74.9,5.4-70.8,5.4z"/>
		<path class="st2" d="M66,44.9h115.9c4.1,0,7.4,3.3,7.4,7.4V77c0,4.1-3.3,7.4-7.4,7.4H66c-4.1,0-7.4-3.3-7.4-7.4V52.4
			C58.6,48.3,61.9,44.9,66,44.9z"/>
		<path class="st2" d="M202.8,84.4h115.9c4.1,0,7.4,3.3,7.4,7.4v24.7c0,4.1-3.3,7.4-7.4,7.4H202.8c-4.1,0-7.4-3.3-7.4-7.4V91.9
			C195.4,87.8,198.7,84.4,202.8,84.4z"/>
		<path class="st2" d="M-70.8-53.9H45.1c4.1,0,7.4,3.3,7.4,7.4v24.7c0,4.1-3.3,7.4-7.4,7.4H-70.8c-4.1,0-7.4-3.3-7.4-7.4v-24.7
			C-78.2-50.6-74.9-53.9-70.8-53.9z"/>
		<path class="st2" d="M66-14.4h115.9c4.1,0,7.4,3.3,7.4,7.4v24.7c0,4.1-3.3,7.4-7.4,7.4H66c-4.1,0-7.4-3.3-7.4-7.4V-6.9
			C58.6-11,61.9-14.4,66-14.4z"/>
		<path class="st2" d="M202.8,25.2h115.9c4.1,0,7.4,3.3,7.4,7.4v24.7c0,4.1-3.3,7.4-7.4,7.4H202.8c-4.1,0-7.4-3.3-7.4-7.4V32.6
			C195.4,28.5,198.7,25.2,202.8,25.2z"/>
	</g>
	<g class="st3">
		<path class="st4" d="M97.7,498.3c0,5.7-0.6,11.3-1.7,16.9c-0.2,1-0.5,2.1-0.7,3.1c-6.2,24.8-23.6,42.9-44.4,44
			c-0.7,0-1.4,0.1-2.1,0.1c-22,0-40.6-19-46.7-45.1c-0.2-0.7-0.3-1.4-0.5-2.1c-1.2-5.5-1.8-11.2-1.7-16.9c0-35.4,21.9-64,48.9-64
			S97.7,462.9,97.7,498.3z"/>
		<path class="st5" d="M97.7,498.3c0,5.7-0.6,11.3-1.7,16.9c-0.2,1-0.5,2.1-0.7,3.1c-0.7,0-1.5,0-2.2-0.1c-5.4-0.3-10.7-1-16-2.2
			c-4.7,1.4-9.4,2.5-14.3,3.3c-3.7,0.5-7.4,0.9-11.2,1c-1.3,0-2.5,0.1-3.8,0.1c-4.5,0-9-0.3-13.4-0.9c-7.2-1-14.2-2.7-21-5.2
			c-3.7,1.2-7.5,2.2-11.4,3c-0.2-0.7-0.3-1.4-0.5-2.1c-1.2-5.5-1.8-11.2-1.7-16.9c0-35.4,21.9-64,48.9-64S97.7,462.9,97.7,498.3z"/>
		<path class="st6" d="M202.1,379c0-15.6-3.6-30.9-10.6-44.8l-57.6,17.9l50.5-29.7c-17.2-24.8-44.6-40.5-74.7-42.6
			c-2.4-3.6-4.9-7-7.8-10.3l-82.7,25.7L87,255.4C43.4,222-19,230.2-52.4,273.8c-7.9,10.3-13.7,22-17.1,34.5l70.8,81.5l-76.9-55.5
			c-44.8,31.8-55.4,93.9-23.6,138.7c25.3,35.7,71,50.7,112.6,36.8c20.5,7.5,42.9,8.1,63.7,1.8c53.7,11.9,106.8-22,118.7-75.7
			c1.6-7,2.3-14.2,2.3-21.4c0-2.2-0.1-4.4-0.2-6.6C200.7,398.5,202.1,388.8,202.1,379z"/>
		<path class="st5" d="M200.4,397.4c-30.4-5.8-61.6-6.2-92.1-1.2c-34.5,5.7-69.9,18.3-103.7,9.1c-19.8-5.4-37-17.9-56.3-24.8
			c-18.7-6.5-38.8-7.8-58.2-3.5c-21.2,50.7,2.7,109,53.4,130.2c22.2,9.3,47.1,10.2,69.9,2.6c20.5,7.5,42.8,8.1,63.7,1.8
			c53.7,11.9,106.8-22,118.7-75.7c1.6-7,2.3-14.2,2.3-21.4c0-2.2-0.1-4.4-0.2-6.6C198.9,404.5,199.8,401,200.4,397.4z"/>
	</g>
	<ellipse class="st2" cx="349.1" cy="645.7" rx="547" ry="99.5"/>
	<path class="st7" d="M528.8,657.2c2.5-10.2,12.8-16.4,23-13.9c2.3,0.6,4.5,1.6,6.4,2.9l0.8,0.6c16.7,12.5,6.8,35.5,0,36.1
		s-19.9,1.1-19.9,1.1S523.7,677.5,528.8,657.2z"/>
	<path class="st6" d="M679.7,641.6v4.2c0,0-68,4.7-75.3,4.7h-13.6c0,0-0.2,0.2-0.5,0.6c-0.6,0.6-1.5,1.7-2.6,3.1
		c-2.1,2.8-4.7,6.7-5.3,9.9c-1,5.8-4.7,7.8-4.7,7.8l-13.6-3.7l-13.1-15.7l-1.9-1.8l-5.4-5.2l-4.7-4.4l0.2-2.5v-0.4
		c1.1-5.4,2.5-10.7,4.3-15.9c0-0.1,0.1-0.3,0.1-0.4c3.8-11.3,10.1-25.1,19.1-29.2c0.7-0.3,1.4-0.6,2.2-0.9l0.9-0.3
		c17.4-5.8,50.2-3.5,50.2-3.5s25.1,7.3,27.2,10.5s25.9,29,25.9,29c2.1,1.6,4,3.4,5.7,5.3C677.2,635.2,679.3,638.3,679.7,641.6z"/>
	<ellipse class="st8" cx="537.1" cy="664.6" rx="7.3" ry="11.5"/>
	<path class="st5" d="M567.4,596.6c0,0-6,9.2-12.3,21c0,0,0,0.1,0,0.1c-1.7,3.1-3.4,6.5-5,9.8l-0.1,0.2c0,0-3.5-2.8-6.2-5.4
		c0-0.1,0.1-0.3,0.1-0.4c3.8-11.3,10.1-25.1,19.1-29.2c0.7-0.3,1.4-0.6,2.2-0.9L567.4,596.6z"/>
	<path class="st8" d="M549.6,627.5c0,0,37.1,11,44.4,6.3c0,0,2.6-33.5-14.6-35.5c0,0-9.9-2.6-12-1S549.6,627.5,549.6,627.5z"/>
	<path class="st8" d="M597.7,602.9c0,0,7.3,27.7,12.5,28.2s58-0.5,55.9-4.2s-25.1-27.2-25.1-27.2L597.7,602.9z"/>
	<path class="st7" d="M588.7,653c0,0,9.5-12.5,26.2,0.1s6.8,35.5,0,36.1s-19.8,1-19.8,1S574.5,681.7,588.7,653z"/>
	<path class="st7" d="M687.4,656.2c-2.8-7.9-11.4-12-19.3-9.2c-0.4,0.1-0.8,0.3-1.2,0.5c-1.9,0.9-3.6,2-5.3,3.2
		c-14.9,11.2-6,31.6,0,32.1c2.2,0.2,5.1,0.3,7.9,0.5c10.3,0.5,19-7.3,19.6-17.6c0.1-1.7-0.1-3.5-0.4-5.1
		C688.3,659,687.9,657.6,687.4,656.2z"/>
	<ellipse class="st8" cx="593" cy="670.8" rx="7.3" ry="11.5"/>
	<path class="st8" d="M613.4,648.9c0,0-1-15.2,15.2-8.9s5.8,13.1,5.8,13.1L613.4,648.9z"/>
	<path class="st8" d="M679.7,641.6v2.1l-2.6,1l-5.3-1c0,0-1.1-8.6,3.2-11C677.2,635.2,679.3,638.3,679.7,641.6z"/>
	<path class="st5" d="M679.7,641.7v4.1c0,0-68,4.7-75.3,4.7h-0.1c-3.8-2-7.5-2.9-10.7-1.6c-1,0.4-1.9,0.9-2.7,1.6
		c-0.2,0.2-0.5,0.4-0.7,0.6c-1,0.9-1.9,2-2.6,3.1c-4.7,7.6-3.7,19.3-3.7,19.3c-13.6,4.2-27.7-6.8-27.7-6.8c-2.6-7.7-5-12.7-7.1-16
		c-2-3-3.8-4.5-5.4-5.2l-4.7-4.4l0.2-2.5l37.9,27.6c0,0,3.7-23.5,12-22s25.1,1.6,25.1,1.6L679.7,641.7z"/>
	<path class="st6" d="M537.1,638.4c0,0-3.1,7.8,0,8.4s10.2-6,19.3,21.4c0,0,14.1,11,27.7,6.8c0,0-1.6-19.9,9.7-24.6
		s30.1,18.8,30.1,18.8v5.2l44.4-4.7c0,0,13.6-10.5,13.1-26.7l-66.9,4.2c0,0-16.7,0-25.1-1.6s-12,22-12,22L537.1,638.4z"/>
	<path class="st7" d="M348.9,495.5L348.9,495.5c15.5,0,28,12.5,28,28v0c0,15.4-12.5,28-28,28h0c-15.4,0-28-12.5-28-28v0
		C320.9,508,333.4,495.5,348.9,495.5z"/>
	<path class="st4" d="M334.3,595.4c3.8-3.3,7.6-6.6,10.3-10.8c2.5-3.8,3.9-8.2,5.3-12.6c3.9-12.5,7.3-25.1,10.1-37.8
		c-15.4-2.3-26.9-15.9-41.9-19.9c-0.4-0.1-11.9,69.1-12.7,75.4c-0.7,5.2-6.7,30.2,0.1,30.3c3.6,0.1,11.2-9,13.9-11.4L334.3,595.4z"
		/>
	<path class="st5" d="M334.3,595.4c3.8-3.3,7.6-6.6,10.3-10.8c2.5-3.8,3.9-8.2,5.3-12.6c3.9-12.5,7.3-25.1,10.1-37.8
		c-15.4-2.3-26.9-15.9-41.9-19.9c-0.4-0.1-11.9,69.1-12.7,75.4c-0.7,5.2-6.7,30.2,0.1,30.3c3.6,0.1,11.2-9,13.9-11.4L334.3,595.4z"
		/>
	<path class="st4" d="M144.1,420.9c-1.7,0.3-3.5,0.4-4.9,1.4c-2,1.4-2.5,4-3.5,6.3c-1.2,2.9-3.4,5.3-6,7c-2.3,1.4-5.1,2.3-6.5,4.6
		c-0.8,1.5-1.1,3.3-1.1,5c-0.2,5.1,0.1,10.3,0.7,15.3c0.3,2.5,0.7,5.2,0.2,7.7c-0.6,2.9-2.5,5.4-4.2,7.8c-4.2,5.8-8.3,12.2-8.6,19.3
		c-0.2,3.6,0.6,7.3-0.3,10.8c-1.6,6.2-8.2,10.2-9.5,16.5c-0.4,1.8-0.3,3.8-1,5.5c-1.3,3-4.7,4.6-5.6,7.7c-0.7,2.3,0.3,4.8,0.4,7.2
		c0.1,3.5-1.8,6.8-3.5,9.8l-10.4,17.7c-3.4,5.7-6.8,11.7-7.4,18.4c-0.5,5.9,1.3,11.7,3.3,17.3c4.5,12.3,11.1,25.4,23.4,30.2
		c7.2,2.8,15.2,2.2,23,1.6c10.6-0.9,21.2-1.8,31.4-4.7c5-1.4,10-3.3,15.1-4.4c3.4-0.7,6.9-1,10.2-2.1c7.2-2.6,12.4-8.9,13.6-16.5
		c4.4,1.7,8.4-4,7.8-8.6s-3.7-8.6-5-13.1c-1.8-6.2,0-13,3-18.7s7.1-10.8,10.4-16.3c3.6-6.2,6.2-13.1,7.5-20.2
		c1.8-9.6,1.2-19.4,0.7-29.2l-2.1-37.2c-0.4-6.8-0.8-13.8-3.8-20c-3.3-6.7-9.3-11.6-15.3-16.1c-8.8-6.7-18.1-12.9-27.8-18.4
		c-6.2-3.5-5.8-2.1-10.7,2C153.7,418,149,420.1,144.1,420.9z"/>
	<path class="st4" d="M228.1,524.4c-7.1,5.6-14.2,11.2-19.7,18.4c-6.6,8.7-10.3,19.3-10.7,30.2c-0.1,5.1,0.3,10.2,1.1,15.3
		c1.1,8.2,3,17.4,10,22c4.4,2.9,10.4,3.6,13.4,7.9c0.9,1.3,1.5,3,2.6,4.2c2,2.2,5.1,2.6,8,2.8c4.3,0.2,8.6,0.1,12.9-0.4
		c4.9-0.6,9.9-1.7,14.7-0.7c9.4,1.8,16.4,10.7,26,11.8c7.9,1,15.4-3.6,22-8c6.8-4.5,14-9.4,17.7-16.7c3.6-7.1,3.4-15.5,3.1-23.5
		c-0.3-8.9-0.6-17.8-3-26.4c-0.7-2.2-1.3-4.5-1.7-6.9c-0.7-6,2-11.9,4-17.6c3.1-8.7,4.5-19.5-1.7-26.4c-2.6-2.9-6.2-4.7-9.9-6
		c-16.2-5.8-34.2-3.6-50.9-1C250.1,505.7,240.6,514.5,228.1,524.4z"/>
	<path class="st9" d="M365.9,489.8c-6.4,9.7-12.9,19.4-17.5,30c-3.2,7.7-5.8,15.6-8,23.6c-6.4,22.2-12.8,44.9-25.6,64.1
		c-1.8,2.8-3.9,5.6-4.1,8.9c-0.2,3.1,1.3,6,2.7,8.8c3,5.8,6.1,11.7,10.4,16.8s9.4,8.8,14.6,12.7c10.7,8,22.6,16.5,36,15.9
		c2.8-0.1,5.7-0.8,7.6-2.8s2.1-4.9,1.8-7.6c-1-8.2-7.2-14.7-12.8-20.8s-11.3-13.2-10.8-21.5c0.3-6.9,4.8-12.7,9.2-18.1
		c4.9-6.1,9.9-12.3,14.5-18.6c20.1-27.5,34.6-58.7,46.1-90.7c4.8-13.5,9.3-27.7,7.8-42c-11-2.7-33-11.7-42.3-2.4
		c-5.6,5.6-9.6,14-14,20.7L365.9,489.8z"/>
	<path class="st6" d="M458.8,395.9c-7,12.2-12.4,25.1-16.2,38.6c-0.9,3.3-1.8,6.7-1,10c0.8,3.5,3.2,6.5,5,9.6s3.1,7.1,1.5,10.3
		c-7.8,0.6-15.5-1.5-23.1-3.6l-23.6-6.6c-2-0.4-3.8-1.2-5.3-2.5c-2.7-2.6-2.5-6.9-2-10.7c4.6-30.5,19.5-58.5,25.1-88.8
		c0.8-4.4,1.7-9.2,5.1-12c10-7.9,32.6-1.2,37.8,10.2C467.7,363.1,465.4,384.5,458.8,395.9z"/>
	<path class="st9" d="M332.3,291.8c-0.9,0.5-1.9,1-2.2,1.9c-0.1,1,0.2,2.1,0.9,2.8l10.1,14.2c10,14,19.9,28.1,31.4,40.9
		c8.7,9.6,18.2,18.5,28.4,26.5c2.9,2.2,6,4.6,7.4,7.9c-6.3-18.6-5.2-38.9,3.1-56.8c3.3-7,7.7-13.5,11.1-20.5c1-1.2,0.9-3.1-0.3-4.1
		c-0.4-0.3-0.8-0.5-1.2-0.6c-8.7-4.5-18.3-7.2-27-11.8c-6.8-3.6-13-8.3-19.1-12.9c-5.5-4.1-12.8-11.4-19.5-13.1
		c-7.3-1.9-7,4.8-9.3,10.3C343.3,283.1,338.4,288.5,332.3,291.8z"/>
	<path class="st5" d="M332.3,291.8c-0.9,0.5-1.9,1-2.2,1.9c-0.1,1,0.2,2.1,0.9,2.8l10.1,14.2c10,14,19.9,28.1,31.4,40.9
		c8.7,9.6,18.2,18.5,28.4,26.5c2.9,2.2,6,4.6,7.4,7.9c-6.3-18.6-5.2-38.9,3.1-56.8c3.3-7,7.7-13.5,11.1-20.5c1-1.2,0.9-3.1-0.3-4.1
		c-0.4-0.3-0.8-0.5-1.2-0.6c-8.7-4.5-18.3-7.2-27-11.8c-6.8-3.6-13-8.3-19.1-12.9c-5.5-4.1-12.8-11.4-19.5-13.1
		c-7.3-1.9-7,4.8-9.3,10.3C343.3,283.1,338.4,288.5,332.3,291.8z"/>
	<path class="st6" d="M394.1,348.4c-4.6-5.2-10.7-8.6-16.2-12.9c-7.8-6.2-13.9-14.1-19.9-22c-10.9-14.6-21.9-32.5-16.5-50
		c-5.8-0.6-10.8,4.2-13.5,9.3s-4.1,10.9-7.5,15.6c-5.2,7.1-13.9,10.5-22.1,13.7c-17.9,7.2-35.3,15.8-51.8,25.8
		c-6.6,4-13.3,8.3-18.4,14.1c-5.4,6.2-8.9,14-13.5,20.9c-9,13.5-22.7,23.6-37.9,29.3c-5,1.9-10.4,3.4-14.8,6.4
		c-9.6,6.5-13.6,19.4-11.3,30.7s10,21,19.3,27.9s19.9,10.9,30.6,14.9c9,3.3,18,6.4,27.1,9.4c6.7,2.3,13.5,4.2,20.5,5.6
		c12.8,2.3,25.9,1.8,38.9,3.2c11.8,1.3,23.4,4.3,35.3,5.1s24.4-0.8,34.1-7.7c7.7-5.5,12.8-13.8,17.5-22
		c12.3-21.2,23.2-43.1,32.8-65.7c2.8-6.7,29.1-44.5,22.5-49.3c-32.9-24.6-22,14.5-25.1,11.5C400.3,358.2,397.9,352.7,394.1,348.4z"
		/>
	<path class="st7" d="M353.3,325.8c-7.1-14.2-11.8-29.4-16.6-44.6c-1.3-4.2-2.6-8.7-1.2-12.9c1.7-5,7.1-9.3,5.5-14.3
		c-12.7,4-27.5,10.3-30,23.4c-0.5,2.9-0.5,5.9-1.8,8.5c-2.6,5.1-9.2,6.1-14.8,7c-16.3,2.6-32.5,9.2-43.7,21.4c-1.9,2-3.6,4.3-6,5.8
		c-1.7,1-3.5,1.8-5.4,2.4c-10.9,3.9-22.2,8.8-29.2,18.1c-3.6,4.8-6,10.5-10,14.9c-5.5,6-13.5,9-19.5,14.6c-4,3.7-6.9,8.4-9.5,13.2
		c-10.2,18.4-17.6,39.9-12.2,60.2c2.8,10.6,9,20.1,12.3,30.5c4.6,14.2,4.1,30.5,12.8,42.8c5.4,7.7,13.8,12.8,22.4,16.6
		c19.1,8.5,40.2,11.9,61,9.8c7.7-0.9,15.4-2.2,23-3.9c18.1-3.7,36.5-7.8,52.9-16.3c28.1-14.4,48.3-40.2,67.6-65.2
		c3.7-4.8,7.4-9.6,10-15c2.6-5.2,4.1-10.8,5.8-16.3c5.8-18.6,14.1-37.1,13.3-56.6c0-2.3-0.4-4.6-1.3-6.8c-0.8-1.6-2-3-2.7-4.6
		c-1.2-2.9-0.7-6.2-1.5-9.2c-2.4-8.4-13.4-10-22.2-9.9l-2.8,49.3c-0.4,7.4-1.2,15.6-6.7,20.6c-4.8,4.2-11.8,4.7-17.2,1.4
		c-5.9-3.8-6.7-10.5-6.7-16.8c0.1-8-0.6-15.3-3.1-23C370.5,354.7,360.8,340.8,353.3,325.8z"/>
	<path class="st9" d="M356.8,466.3c34.8,17.7,69.8,35.4,101,58.9c7.2,5.4,14.2,11.2,21.8,16c21.8,13.9,48.9,20.6,65.7,40.2
		c3.5,4.1,6.5,8.7,10.6,12.3c3.5,2.9,7.5,5.3,11.7,7c13.5,6,28.2,9,42.9,8.8c3.9,0,7.8-0.3,11.3-2c9.4-4.5,11.5-16.7,12.5-27.1
		c0.3-3.5,0.4-7.7-2.4-9.8c-1.5-1.2-3.5-1.5-5.3-1.8c-30.4-4.8-58.5-19.4-83.9-36.8s-48.7-37.7-73.8-55.6
		c-8.8-6.3-17.8-12.3-26.8-18.3L413,438.8c-15.4-10.2-31.7-20.8-50.1-22.7c-1-0.2-2.1-0.1-3.1,0.2c-1.6,0.6-2.5,2.3-3.3,3.8
		c-5.4,10.5-12,20.1-18.6,29.9c-3.5,5.2-4,6.6,2.2,9.4C345.5,461.9,351.3,463.5,356.8,466.3z"/>
	<path d="M425.2,757.5c0.8,0,1.5-0.7,1.5-1.5s-0.7-1.5-1.5-1.5s-1.5,0.7-1.5,1.5S424.4,757.5,425.2,757.5z"/>
	<circle class="st9" cx="436.2" cy="263.7" r="95.7"/>
	<path class="st7" d="M361,301c1.7-8.6,11.6-12.9,20.3-13.5c18-1,35.1,7.7,44.9,22.8c2-5.4,3.4-10.9,4.1-16.6l16,1.2
		c1.8,0.3,3.6,0.1,5.3-0.5c2.1-0.9,3.3-3,4.4-5c7-13.1,11.7-29.1,24.8-36v18c7.3-1.4,13.5-6.1,16.8-12.8c0.9,5,2.3,9.9,4.3,14.5
		c0.3,0.8,0.8,1.6,1.6,1.8c0.8,0.1,1.6-0.2,2.2-0.8c6.1-4.6,11.7-10,16.5-16l19,32.9c22.7-57.3-0.3-122.6-53.8-153.1
		c-4.4-2.5-9-4.7-13.7-6.5c-12.4-4.7-25.7-6.1-38.9-7.1c-18.8-1.3-38.5-1.2-55,7.8c-8.8,4.8-16.2,11.9-23.3,19.1
		c-9.6,9.7-19.2,19.9-24.3,32.5c-3.5,8.7-4.7,18.2-5.8,27.5c-0.7,5.6-1.2,11.5,0.4,16.9c1.1,3.8,3.2,7.2,4.7,10.8
		c2.4,6.1,2.7,12.8,3.6,19.2c2,14.3,6.7,28.1,13.8,40.7c1.5,2.7,3.4,5.5,6.4,6.2s6.6-2.6,5-5.2"/>
	<path class="st10" d="M361,301c1.7-8.6,11.6-12.9,20.3-13.5c18-1,35.1,7.7,44.9,22.8c2-5.4,3.4-10.9,4.1-16.6l16,1.2
		c1.8,0.3,3.6,0.1,5.3-0.5c2.1-0.9,3.3-3,4.4-5c7-13.1,11.7-29.1,24.8-36v18c7.3-1.4,13.5-6.1,16.8-12.8c0.9,5,2.3,9.9,4.3,14.5
		c0.3,0.8,0.8,1.6,1.6,1.8c0.8,0.1,1.6-0.2,2.2-0.8c6.1-4.6,11.7-10,16.5-16l19,32.9c22.7-57.3-0.3-122.6-53.8-153.1
		c-4.4-2.5-9-4.7-13.7-6.5c-12.4-4.7-25.7-6.1-38.9-7.1c-18.8-1.3-38.5-1.2-55,7.8c-8.8,4.8-16.2,11.9-23.3,19.1
		c-9.6,9.7-19.2,19.9-24.3,32.5c-3.5,8.7-4.7,18.2-5.8,27.5c-0.7,5.6-1.2,11.5,0.4,16.9c1.1,3.8,3.2,7.2,4.7,10.8
		c2.4,6.1,2.7,12.8,3.6,19.2c2,14.3,6.7,28.1,13.8,40.7c1.5,2.7,3.4,5.5,6.4,6.2s6.6-2.6,5-5.2"/>
	<path class="st6" d="M251.2,392.8c3.9,10.6,13.6,17.8,22.8,24.4l24,17.1c6.4,4.5,12.9,9.3,17.1,15.9c-6.1,2.3-8.8,10.1-6.8,16.3
		s7.7,10.6,13.9,12.6s12.8,1.9,19.3,1.6c7.5-0.4,15.2-1.3,21.4-5.5l-13.5-8.3c-3.6-2.2-7.7-5.7-6.3-9.7l14.2-0.1
		c1.5,0,3.1-0.1,4.3-1s1.6-2.4,2.1-3.7c4.3-11.2,14.6-19,26.6-20.1c3.5-0.3,7.6-0.1,10-2.7c1.6-1.7,1.9-4.2,2.2-6.6
		c0.5-4.4,1-9,0.2-13.4s-3.4-8.7-7.5-10.5c-3-1.4-6.5-1.2-9.8-1.7c-15.1-2-25.5-15.7-33.7-28.6s-16.8-27.1-31.2-32
		c-4.5-1.3-9.2-2.1-13.9-2.1c-10.4-0.4-21.1,0.4-30.6,4.7C258.3,347.4,244.3,373.9,251.2,392.8z"/>
	<path class="st5" d="M541.3,273.3l-19-32.9c-4.8,6-10.4,11.4-16.5,16c-0.6,0.6-1.4,0.9-2.2,0.8c-0.8-0.2-1.3-1.1-1.6-1.8
		c-1.9-4.7-3.4-9.6-4.3-14.5c-3.3,6.7-9.5,11.4-16.8,12.8v-18c-13.1,6.9-17.8,22.9-24.8,36c-1.1,2-2.3,4-4.4,5
		c-1.7,0.6-3.5,0.8-5.3,0.5l-16-1.2c-0.7,5.7-2,11.3-4.1,16.6c-9.8-15.1-26.9-23.8-44.9-22.8c-8.7,0.6-18.6,4.9-20.3,13.5l-0.8-0.9
		c1.6,2.6-2,5.9-5,5.2s-4.9-3.5-6.4-6.2c-7.1-12.6-11.7-26.4-13.7-40.8c-0.9-6.5-1.3-13.1-3.6-19.2c-1.4-3.7-3.5-7.1-4.7-10.8
		c0-0.1-0.1-0.2-0.1-0.4c-0.1,0.8-0.2,1.5-0.3,2.2c-0.7,5.7-1.2,11.5,0.4,17c1.1,3.8,3.2,7.2,4.7,10.8c2.4,6.1,2.7,12.8,3.6,19.2
		c2,14.3,6.7,28.1,13.7,40.8c1.5,2.7,3.4,5.5,6.4,6.2s6.6-2.6,5-5.2l0.8,0.9c1.7-8.6,11.6-12.9,20.3-13.5c18-1,35.1,7.7,44.9,22.8
		c2-5.4,3.4-10.9,4.1-16.6l16,1.2c1.8,0.3,3.6,0.1,5.3-0.5c2.1-0.9,3.3-3,4.4-5c7-13.1,11.7-29.1,24.8-36v18
		c7.3-1.4,13.5-6.1,16.8-12.8c0.9,5,2.3,9.9,4.3,14.5c0.3,0.8,0.8,1.6,1.6,1.8c0.8,0.1,1.6-0.2,2.2-0.8c6.1-4.6,11.7-10,16.5-16
		l19,32.9c6.9-17.5,9.7-36.3,8.2-55C548.6,249.6,545.8,261.7,541.3,273.3z"/>
</g>
<rect x="-102.5" y="701.9" class="st11" width="1342.3" height="248.3"/>
<text transform="matrix(1 0 0 1 -102.4912 751.5742)" class="st12 st13">Eteous majeur ?</text>
</svg>
